M48
METRIC,LZ,000.000
;FILE_FORMAT=3:3
;TYPE=PLATED
;Layer: PTH_Through
;EasyEDA v6.5.1, 2022-03-16 21:36:57
;cbdba802507a4d1bbacf8785086f075b,e06f65cb955844d690f4b06c7cd67870,10
;Gerber Generator version 0.2
;Holesize 1 = 0.306 mm
T01C0.306
;Holesize 2 = 0.889 mm
T02C0.889
;Holesize 3 = 0.900 mm
T03C0.900
;Holesize 4 = 1.000 mm
T04C1.000
;Holesize 5 = 1.103 mm
T05C1.103
%
G05
G90
T01
X053332Y083122
X041821Y083851
X032342Y031877
X053279Y066086
X055510Y041452
X060252Y051353
X054519Y066762
X026416Y073704
X052580Y059346
T02
X009906Y026797
X040640Y026797
X038100Y026797
X068072Y081026
X038989Y080010
X045466Y026797
X048006Y086995
X038989Y077470
X048006Y026797
X068072Y086106
X068072Y088646
X045466Y086995
X038989Y074930
X068072Y083566
X038989Y082550
X014986Y031877
X014986Y029337
X014986Y026797
X017526Y031877
X017526Y029337
X017526Y026797
X020066Y031877
X020066Y029337
X020066Y026797
X022606Y031877
X022606Y029337
X022606Y026797
X025146Y031877
X025146Y029337
X025146Y026797
X027686Y031877
X027686Y029337
X027686Y026797
X032766Y082550
X032766Y085090
X032766Y087630
X030226Y082550
X030226Y085090
X030226Y087630
X027686Y082550
X027686Y085090
X027686Y087630
X025146Y082550
X025146Y085090
X025146Y087630
X022606Y082550
X022606Y085090
X022606Y087630
X020066Y082550
X020066Y085090
X020066Y087630
X017526Y082550
X017526Y085090
X017526Y087630
X014986Y082550
X014986Y085090
X014986Y087630
X012446Y082550
X012446Y085090
X012446Y087630
X009906Y082550
X009906Y085090
X009906Y087630
X007366Y082550
X007366Y085090
X007366Y087630
T03
X047549Y077724
X054051Y077724
T04
X064464Y074513
X057964Y074513
X057964Y070013
X064464Y070013
X076783Y074640
X070283Y074640
X070283Y070140
X076783Y070140
X088467Y074640
X081967Y074640
X081967Y070140
X088467Y070140
X100024Y074767
X093524Y074767
X093524Y070267
X100024Y070267
X064337Y064607
X057837Y064607
X057837Y060107
X064337Y060107
X076656Y064480
X070156Y064480
X070156Y059980
X076656Y059980
X088578Y064372
X082078Y064372
X082078Y059872
X088578Y059872
X100008Y064499
X093508Y064499
X093508Y059999
X100008Y059999
X064591Y054193
X058091Y054193
X058091Y049693
X064591Y049693
X076529Y054320
X070029Y054320
X070029Y049820
X076529Y049820
X088578Y054212
X082078Y054212
X082078Y049712
X088578Y049712
X100008Y054212
X093508Y054212
X093508Y049712
X100008Y049712
X064718Y044160
X058218Y044160
X058218Y039660
X064718Y039660
X076656Y044160
X070156Y044160
X070156Y039660
X076656Y039660
X088594Y044160
X082094Y044160
X082094Y039660
X088594Y039660
X099881Y044179
X093381Y044179
X093381Y039679
X099881Y039679
X082101Y035035
X075601Y035035
X075601Y030535
X082101Y030535
T05
X007366Y064770
X009906Y064770
X012446Y064770
X014986Y064770
X017526Y064770
X020066Y064770
X022606Y064770
X025146Y064770
X027686Y064770
X030226Y064770
X032766Y064770
X040386Y049530
X037846Y049530
X040386Y064770
X042926Y064770
X045466Y064770
X048006Y064770
X048006Y049530
X045466Y049530
X042926Y049530
X035306Y064770
X037846Y064770
X035306Y049530
X032766Y049530
X030226Y049530
X027686Y049530
X025146Y049530
X022606Y049530
X020066Y049530
X017526Y049530
X014986Y049530
X012446Y049530
X009906Y049530
X007366Y049530
M30
