G04 Layer: TopSilkscreenLayer*
G04 EasyEDA v6.5.1, 2022-03-16 21:36:57*
G04 cbdba802507a4d1bbacf8785086f075b,e06f65cb955844d690f4b06c7cd67870,10*
G04 Gerber Generator version 0.2*
G04 Scale: 100 percent, Rotated: No, Reflected: No *
G04 Dimensions in millimeters *
G04 leading zeros omitted , absolute positions ,4 integer and 5 decimal *
%FSLAX45Y45*%
%MOMM*%

%ADD10C,0.2540*%
%ADD18C,0.2032*%
%ADD19C,0.2030*%
%ADD20C,0.1524*%
%ADD21C,0.1520*%

%LPD*%
G36*
X2578100Y4417110D02*
G01*
X2578100Y4328058D01*
X2730601Y4328058D01*
X2739898Y4327855D01*
X2748280Y4327347D01*
X2755798Y4326534D01*
X2762402Y4325315D01*
X2768244Y4323791D01*
X2773273Y4321860D01*
X2777490Y4319574D01*
X2781046Y4316933D01*
X2784805Y4312716D01*
X2787904Y4307840D01*
X2790240Y4302404D01*
X2791917Y4296511D01*
X2792831Y4290314D01*
X2793085Y4283964D01*
X2792628Y4277614D01*
X2791460Y4271365D01*
X2789580Y4265422D01*
X2786989Y4259884D01*
X2783738Y4254906D01*
X2779776Y4250588D01*
X2776118Y4247845D01*
X2771546Y4245305D01*
X2766110Y4242917D01*
X2759913Y4240834D01*
X2753055Y4238955D01*
X2745638Y4237431D01*
X2737662Y4236161D01*
X2729331Y4235297D01*
X2692450Y4232249D01*
X2692450Y4328058D01*
X2578100Y4328058D01*
X2578100Y4161434D01*
X2692450Y4161434D01*
X2745435Y4158335D01*
X2758846Y4156964D01*
X2771190Y4154982D01*
X2782163Y4152493D01*
X2787091Y4151122D01*
X2795625Y4147972D01*
X2799181Y4146245D01*
X2802280Y4144467D01*
X2807360Y4140860D01*
X2811424Y4137304D01*
X2814574Y4133545D01*
X2816910Y4129278D01*
X2818536Y4124299D01*
X2819552Y4118356D01*
X2820060Y4111142D01*
X2820212Y4102506D01*
X2820111Y4093413D01*
X2819552Y4086047D01*
X2818434Y4080052D01*
X2816606Y4075125D01*
X2813812Y4070858D01*
X2810002Y4066997D01*
X2804871Y4063136D01*
X2798368Y4058970D01*
X2794406Y4056684D01*
X2790291Y4054652D01*
X2786024Y4052874D01*
X2776829Y4049877D01*
X2771851Y4048709D01*
X2760929Y4046982D01*
X2748534Y4045965D01*
X2734462Y4045610D01*
X2692450Y4045610D01*
X2692450Y4161434D01*
X2578100Y4161434D01*
X2578100Y3964889D01*
X2741523Y3965194D01*
X2779877Y3965752D01*
X2794914Y3966260D01*
X2807665Y3966972D01*
X2818434Y3967886D01*
X2827578Y3969054D01*
X2835402Y3970477D01*
X2842209Y3972255D01*
X2848406Y3974287D01*
X2854299Y3976776D01*
X2864256Y3981602D01*
X2877108Y3988612D01*
X2883001Y3992168D01*
X2893669Y3999484D01*
X2898495Y4003243D01*
X2902966Y4007104D01*
X2907080Y4011066D01*
X2910890Y4015130D01*
X2914396Y4019296D01*
X2917545Y4023664D01*
X2920441Y4028135D01*
X2923032Y4032758D01*
X2925318Y4037533D01*
X2927350Y4042562D01*
X2929128Y4047744D01*
X2931871Y4058716D01*
X2933598Y4070604D01*
X2934157Y4076954D01*
X2934563Y4090415D01*
X2934462Y4098747D01*
X2933598Y4114342D01*
X2931820Y4128515D01*
X2930550Y4135120D01*
X2929077Y4141419D01*
X2927400Y4147362D01*
X2925419Y4153001D01*
X2923235Y4158335D01*
X2920746Y4163364D01*
X2918053Y4168140D01*
X2915056Y4172559D01*
X2911856Y4176725D01*
X2908350Y4180636D01*
X2904540Y4184243D01*
X2900476Y4187596D01*
X2896158Y4190695D01*
X2891536Y4193540D01*
X2886659Y4196130D01*
X2881477Y4198467D01*
X2875991Y4200601D01*
X2870200Y4202531D01*
X2846070Y4208729D01*
X2864154Y4220565D01*
X2869590Y4224324D01*
X2874619Y4228287D01*
X2879242Y4232402D01*
X2883560Y4236720D01*
X2887472Y4241241D01*
X2891028Y4245965D01*
X2894228Y4250944D01*
X2897073Y4256125D01*
X2899562Y4261561D01*
X2901746Y4267200D01*
X2903524Y4273143D01*
X2904998Y4279290D01*
X2906166Y4285742D01*
X2906979Y4292498D01*
X2907436Y4299508D01*
X2907639Y4306824D01*
X2907182Y4320082D01*
X2906623Y4326280D01*
X2905810Y4332173D01*
X2904744Y4337761D01*
X2903372Y4343146D01*
X2901797Y4348226D01*
X2899968Y4353102D01*
X2897784Y4357725D01*
X2895396Y4362145D01*
X2892653Y4366361D01*
X2889656Y4370374D01*
X2886354Y4374184D01*
X2882696Y4377842D01*
X2878734Y4381347D01*
X2874467Y4384700D01*
X2869895Y4387951D01*
X2859633Y4393996D01*
X2850642Y4398416D01*
X2844139Y4401261D01*
X2837484Y4403699D01*
X2830372Y4405731D01*
X2822448Y4407509D01*
X2813304Y4408932D01*
X2802686Y4410151D01*
X2790139Y4411167D01*
X2775356Y4412030D01*
X2737662Y4413402D01*
G37*
G36*
X3253943Y4415485D02*
G01*
X3232658Y4415282D01*
X3217265Y4414621D01*
X3211474Y4414062D01*
X3206750Y4413300D01*
X3202940Y4412284D01*
X3199993Y4411014D01*
X3197707Y4409440D01*
X3196031Y4407560D01*
X3194710Y4405325D01*
X3192221Y4397502D01*
X3167278Y4301134D01*
X3133293Y4168343D01*
X3122828Y4129532D01*
X3120339Y4121505D01*
X3119780Y4122572D01*
X3117189Y4132275D01*
X3112820Y4150868D01*
X3100070Y4209186D01*
X3058109Y4412081D01*
X2989224Y4414367D01*
X2971901Y4414520D01*
X2958947Y4414164D01*
X2953969Y4413707D01*
X2949905Y4413097D01*
X2946755Y4412335D01*
X2944418Y4411370D01*
X2942844Y4410202D01*
X2941980Y4408881D01*
X2941726Y4407306D01*
X2945384Y4390796D01*
X2955036Y4350969D01*
X2987344Y4222140D01*
X3052267Y3968242D01*
X3180435Y3964432D01*
X3220364Y4126026D01*
X3228898Y4158742D01*
X3236569Y4186631D01*
X3242970Y4208475D01*
X3247847Y4222953D01*
X3249523Y4227017D01*
X3250692Y4228795D01*
X3251047Y4228744D01*
X3251962Y4226915D01*
X3255314Y4216603D01*
X3260547Y4198670D01*
X3267303Y4174388D01*
X3283813Y4111904D01*
X3321304Y3964889D01*
X3391509Y3964940D01*
X3407359Y3965295D01*
X3421481Y3965956D01*
X3433216Y3966870D01*
X3441954Y3967987D01*
X3445001Y3968597D01*
X3447034Y3969258D01*
X3448050Y3969918D01*
X3449574Y3974642D01*
X3457600Y4003954D01*
X3487267Y4118051D01*
X3525570Y4268622D01*
X3543046Y4338523D01*
X3555390Y4388866D01*
X3560064Y4409948D01*
X3558895Y4411065D01*
X3555593Y4412081D01*
X3550412Y4412996D01*
X3543503Y4413859D01*
X3525570Y4415028D01*
X3503676Y4415485D01*
X3481070Y4415332D01*
X3465322Y4414723D01*
X3459632Y4414113D01*
X3455111Y4413250D01*
X3451656Y4412081D01*
X3449065Y4410557D01*
X3447186Y4408678D01*
X3445865Y4406392D01*
X3444849Y4403598D01*
X3411372Y4248404D01*
X3398469Y4189882D01*
X3389122Y4148531D01*
X3383584Y4125518D01*
X3382162Y4120997D01*
X3381603Y4121607D01*
X3379419Y4128058D01*
X3375761Y4140911D01*
X3364890Y4182872D01*
X3350463Y4241749D01*
X3333851Y4311853D01*
X3310128Y4415485D01*
G37*
G36*
X1791207Y4409998D02*
G01*
X1791207Y4334764D01*
X1923999Y4334611D01*
X1935225Y4334357D01*
X1959254Y4332681D01*
X1970735Y4331360D01*
X1981098Y4329887D01*
X1989582Y4328210D01*
X1995678Y4326585D01*
X2001418Y4324705D01*
X2006701Y4322521D01*
X2011629Y4320082D01*
X2016201Y4317288D01*
X2020316Y4314240D01*
X2024075Y4310938D01*
X2027428Y4307281D01*
X2030374Y4303369D01*
X2032914Y4299153D01*
X2035098Y4294682D01*
X2036876Y4289907D01*
X2038248Y4284827D01*
X2039264Y4279493D01*
X2039823Y4273854D01*
X2040026Y4267962D01*
X2039823Y4261459D01*
X2039112Y4255516D01*
X2037892Y4250029D01*
X2036114Y4244949D01*
X2033727Y4240123D01*
X2030730Y4235551D01*
X2027072Y4231081D01*
X2022703Y4226661D01*
X2018995Y4223308D01*
X2015337Y4220464D01*
X2011578Y4218025D01*
X2007565Y4215942D01*
X2003094Y4214215D01*
X1998014Y4212742D01*
X1992172Y4211574D01*
X1985365Y4210558D01*
X1968246Y4209084D01*
X1885340Y4205630D01*
X1885340Y4334764D01*
X1791207Y4334764D01*
X1791207Y3964889D01*
X1885340Y3964889D01*
X1885340Y4133037D01*
X1979726Y4133138D01*
X1997456Y4133545D01*
X2011934Y4134408D01*
X2023973Y4135831D01*
X2029358Y4136796D01*
X2034438Y4137964D01*
X2044039Y4140911D01*
X2053589Y4144772D01*
X2063953Y4149699D01*
X2073706Y4155135D01*
X2083358Y4161586D01*
X2092553Y4168698D01*
X2100986Y4176217D01*
X2104796Y4180027D01*
X2111349Y4187596D01*
X2114042Y4191254D01*
X2120341Y4201312D01*
X2122779Y4206087D01*
X2124862Y4210913D01*
X2126538Y4215942D01*
X2127859Y4221378D01*
X2128926Y4227322D01*
X2129688Y4233976D01*
X2130247Y4241495D01*
X2130806Y4259783D01*
X2130806Y4281982D01*
X2130247Y4300220D01*
X2129739Y4307738D01*
X2128926Y4314393D01*
X2127910Y4320286D01*
X2126538Y4325670D01*
X2124862Y4330649D01*
X2122830Y4335424D01*
X2120392Y4340148D01*
X2117496Y4344974D01*
X2114143Y4350004D01*
X2110232Y4355236D01*
X2105507Y4360722D01*
X2100173Y4366260D01*
X2094433Y4371797D01*
X2088388Y4377080D01*
X2082241Y4381957D01*
X2076196Y4386275D01*
X2067356Y4391609D01*
X2061464Y4394708D01*
X2055520Y4397298D01*
X2049068Y4399483D01*
X2041804Y4401261D01*
X2033270Y4402734D01*
X2022957Y4403953D01*
X2010562Y4404918D01*
X1977745Y4406341D01*
X1931365Y4407408D01*
G37*
G36*
X2368499Y4401820D02*
G01*
X2355596Y4401515D01*
X2342794Y4400651D01*
X2330246Y4399229D01*
X2318004Y4397248D01*
X2306167Y4394657D01*
X2294890Y4391558D01*
X2284222Y4387850D01*
X2273960Y4383532D01*
X2263749Y4378401D01*
X2253640Y4372559D01*
X2243632Y4366056D01*
X2233828Y4358995D01*
X2224379Y4351375D01*
X2215235Y4343298D01*
X2206548Y4334814D01*
X2198370Y4326026D01*
X2190750Y4316984D01*
X2183739Y4307738D01*
X2177491Y4298391D01*
X2172004Y4288942D01*
X2167382Y4279493D01*
X2163165Y4268978D01*
X2159508Y4257903D01*
X2156460Y4246372D01*
X2154021Y4234434D01*
X2152142Y4222191D01*
X2150872Y4209694D01*
X2150160Y4197096D01*
X2150059Y4184446D01*
X2150516Y4171797D01*
X2151532Y4159250D01*
X2153158Y4146905D01*
X2155342Y4134865D01*
X2158136Y4123182D01*
X2161489Y4111955D01*
X2165400Y4101236D01*
X2169922Y4091178D01*
X2175103Y4081373D01*
X2180691Y4071924D01*
X2186787Y4062933D01*
X2193239Y4054348D01*
X2200148Y4046118D01*
X2207463Y4038346D01*
X2215083Y4030979D01*
X2223109Y4024071D01*
X2231440Y4017518D01*
X2240076Y4011422D01*
X2248966Y4005783D01*
X2258161Y4000550D01*
X2267559Y3995724D01*
X2277211Y3991406D01*
X2287016Y3987495D01*
X2297074Y3984040D01*
X2307234Y3980992D01*
X2317546Y3978452D01*
X2328011Y3976370D01*
X2338578Y3974744D01*
X2349195Y3973576D01*
X2359863Y3972864D01*
X2370582Y3972661D01*
X2381300Y3972915D01*
X2392070Y3973677D01*
X2402789Y3974896D01*
X2413457Y3976624D01*
X2424023Y3978808D01*
X2434590Y3981500D01*
X2445004Y3984701D01*
X2455265Y3988409D01*
X2465425Y3992626D01*
X2475382Y3997350D01*
X2485186Y4002582D01*
X2494788Y4008323D01*
X2504135Y4014622D01*
X2513228Y4021429D01*
X2522118Y4028744D01*
X2547823Y4051198D01*
X2495854Y4104894D01*
X2461666Y4078935D01*
X2456383Y4075480D01*
X2445156Y4069079D01*
X2433167Y4063390D01*
X2426970Y4060850D01*
X2414371Y4056430D01*
X2401570Y4052925D01*
X2388819Y4050385D01*
X2376373Y4048912D01*
X2370328Y4048556D01*
X2364435Y4048506D01*
X2358745Y4048709D01*
X2353208Y4049217D01*
X2347976Y4050029D01*
X2335225Y4052976D01*
X2329078Y4054703D01*
X2317242Y4058818D01*
X2306015Y4063695D01*
X2295499Y4069334D01*
X2285695Y4075684D01*
X2281021Y4079087D01*
X2272284Y4086453D01*
X2264257Y4094479D01*
X2260549Y4098696D01*
X2253691Y4107637D01*
X2247646Y4117136D01*
X2242413Y4127195D01*
X2237994Y4137761D01*
X2234488Y4148836D01*
X2231847Y4160367D01*
X2230831Y4166311D01*
X2230069Y4172305D01*
X2229256Y4184700D01*
X2229358Y4197451D01*
X2230424Y4210050D01*
X2232253Y4221683D01*
X2233472Y4227322D01*
X2236622Y4238091D01*
X2240584Y4248353D01*
X2245360Y4258005D01*
X2251049Y4267098D01*
X2254199Y4271467D01*
X2261108Y4279747D01*
X2268931Y4287469D01*
X2277618Y4294682D01*
X2282291Y4298086D01*
X2292299Y4304487D01*
X2303221Y4310380D01*
X2315260Y4315917D01*
X2327148Y4320387D01*
X2338984Y4323842D01*
X2350668Y4326229D01*
X2356510Y4327042D01*
X2368194Y4327855D01*
X2379827Y4327652D01*
X2391460Y4326382D01*
X2397252Y4325366D01*
X2408936Y4322521D01*
X2420670Y4318609D01*
X2426563Y4316272D01*
X2438400Y4310786D01*
X2450338Y4304233D01*
X2456383Y4300575D01*
X2468524Y4292396D01*
X2496820Y4272381D01*
X2527452Y4299356D01*
X2536545Y4308398D01*
X2543454Y4316272D01*
X2545842Y4319524D01*
X2547315Y4322114D01*
X2547823Y4323943D01*
X2547416Y4325874D01*
X2546248Y4328210D01*
X2544318Y4330852D01*
X2541778Y4333748D01*
X2534818Y4340250D01*
X2525877Y4347413D01*
X2515311Y4354982D01*
X2503576Y4362602D01*
X2491079Y4370019D01*
X2478328Y4376877D01*
X2465730Y4382973D01*
X2453640Y4388002D01*
X2442718Y4391660D01*
X2431237Y4394758D01*
X2419248Y4397298D01*
X2406904Y4399280D01*
X2394254Y4400702D01*
X2381402Y4401515D01*
G37*
G36*
X3673144Y4312615D02*
G01*
X3658514Y4312208D01*
X3644341Y4311294D01*
X3630879Y4309922D01*
X3618229Y4307992D01*
X3594150Y4303369D01*
X3588258Y4301896D01*
X3583228Y4300372D01*
X3579063Y4298645D01*
X3575710Y4296664D01*
X3572967Y4294327D01*
X3570884Y4291584D01*
X3569360Y4288332D01*
X3568242Y4284472D01*
X3567480Y4279950D01*
X3566871Y4268622D01*
X3566871Y4241292D01*
X3567176Y4231843D01*
X3567734Y4224782D01*
X3568750Y4219956D01*
X3570224Y4217060D01*
X3572306Y4215739D01*
X3575050Y4215739D01*
X3601720Y4224934D01*
X3616858Y4229201D01*
X3631539Y4232605D01*
X3645814Y4235145D01*
X3659530Y4236821D01*
X3672586Y4237583D01*
X3684930Y4237482D01*
X3690823Y4237126D01*
X3701948Y4235704D01*
X3707129Y4234688D01*
X3712108Y4233418D01*
X3716782Y4231944D01*
X3721252Y4230268D01*
X3725418Y4228338D01*
X3729278Y4226204D01*
X3732834Y4223867D01*
X3736086Y4221327D01*
X3739032Y4218533D01*
X3741674Y4215536D01*
X3746855Y4208526D01*
X3751173Y4201972D01*
X3754018Y4196740D01*
X3755085Y4193438D01*
X3754170Y4192320D01*
X3751529Y4191101D01*
X3747312Y4189831D01*
X3741775Y4188510D01*
X3727348Y4186021D01*
X3692906Y4181957D01*
X3677107Y4179722D01*
X3662273Y4177131D01*
X3648405Y4174185D01*
X3635400Y4170883D01*
X3623360Y4167174D01*
X3612134Y4163110D01*
X3601720Y4158640D01*
X3592169Y4153763D01*
X3587648Y4151172D01*
X3579266Y4145635D01*
X3575304Y4142740D01*
X3568039Y4136593D01*
X3557727Y4126839D01*
X3553866Y4122724D01*
X3550767Y4118711D01*
X3548329Y4114596D01*
X3546500Y4110228D01*
X3545179Y4105198D01*
X3544265Y4099407D01*
X3543706Y4092549D01*
X3543249Y4068724D01*
X3647795Y4068724D01*
X3647948Y4074922D01*
X3648659Y4080916D01*
X3649929Y4086504D01*
X3651758Y4091533D01*
X3654196Y4095750D01*
X3657142Y4099051D01*
X3660851Y4101744D01*
X3665169Y4104335D01*
X3669995Y4106773D01*
X3675379Y4109008D01*
X3681171Y4111091D01*
X3687419Y4112971D01*
X3693972Y4114596D01*
X3700779Y4116019D01*
X3715105Y4118051D01*
X3722471Y4118660D01*
X3755085Y4119575D01*
X3754983Y4076293D01*
X3754475Y4068267D01*
X3753510Y4061764D01*
X3751935Y4056481D01*
X3749649Y4052011D01*
X3746500Y4048150D01*
X3742334Y4044543D01*
X3737152Y4040835D01*
X3731412Y4037634D01*
X3724960Y4034891D01*
X3718001Y4032758D01*
X3710635Y4031132D01*
X3703116Y4030014D01*
X3695547Y4029506D01*
X3688079Y4029506D01*
X3680917Y4030065D01*
X3674211Y4031234D01*
X3668115Y4032961D01*
X3662781Y4035247D01*
X3658412Y4038142D01*
X3655314Y4041495D01*
X3652723Y4045813D01*
X3650691Y4050893D01*
X3649167Y4056532D01*
X3648201Y4062526D01*
X3647795Y4068724D01*
X3543249Y4068724D01*
X3543401Y4042511D01*
X3543757Y4034383D01*
X3544315Y4027474D01*
X3545230Y4021582D01*
X3546500Y4016400D01*
X3548278Y4011777D01*
X3550564Y4007459D01*
X3553460Y4003243D01*
X3557066Y3998823D01*
X3566566Y3988663D01*
X3570935Y3984345D01*
X3575456Y3980281D01*
X3580028Y3976522D01*
X3584752Y3973017D01*
X3594455Y3966921D01*
X3604514Y3961942D01*
X3609644Y3959910D01*
X3614877Y3958132D01*
X3620211Y3956659D01*
X3625596Y3955440D01*
X3631082Y3954526D01*
X3636568Y3953916D01*
X3647846Y3953560D01*
X3653536Y3953764D01*
X3665118Y3955135D01*
X3671011Y3956202D01*
X3682898Y3959301D01*
X3694887Y3963517D01*
X3700983Y3966057D01*
X3707079Y3968902D01*
X3719322Y3975455D01*
X3730599Y3981958D01*
X3739235Y3986631D01*
X3745585Y3989578D01*
X3749954Y3990695D01*
X3752748Y3990136D01*
X3754272Y3987850D01*
X3754983Y3983939D01*
X3755085Y3978351D01*
X3755390Y3974236D01*
X3756507Y3971086D01*
X3758946Y3968699D01*
X3763111Y3967022D01*
X3769410Y3965905D01*
X3778250Y3965244D01*
X3790187Y3964940D01*
X3855974Y3964889D01*
X3855923Y4122318D01*
X3855465Y4164177D01*
X3854907Y4181805D01*
X3854145Y4197502D01*
X3853027Y4211370D01*
X3851605Y4223562D01*
X3849827Y4234230D01*
X3847592Y4243578D01*
X3844848Y4251756D01*
X3841648Y4258868D01*
X3839819Y4262120D01*
X3835704Y4267962D01*
X3830980Y4273194D01*
X3825595Y4277969D01*
X3819499Y4282389D01*
X3812590Y4286656D01*
X3804920Y4290923D01*
X3796842Y4294936D01*
X3787851Y4298442D01*
X3777437Y4301540D01*
X3765702Y4304334D01*
X3752951Y4306722D01*
X3739387Y4308754D01*
X3725113Y4310380D01*
X3710482Y4311548D01*
X3695547Y4312310D01*
G37*
G36*
X3911752Y4301134D02*
G01*
X3890060Y4300982D01*
X3872382Y4300474D01*
X3860393Y4299813D01*
X3857142Y4299407D01*
X3855974Y4298950D01*
X3862222Y4281576D01*
X3903065Y4172712D01*
X3978097Y3974998D01*
X3963771Y3932072D01*
X3958793Y3918864D01*
X3954272Y3908399D01*
X3952341Y3904589D01*
X3950665Y3901897D01*
X3949446Y3900576D01*
X3948176Y3900220D01*
X3945839Y3899966D01*
X3938320Y3899915D01*
X3927500Y3900373D01*
X3898493Y3902557D01*
X3840886Y3908348D01*
X3797452Y3912158D01*
X3739845Y3916375D01*
X3679037Y3920083D01*
X3628440Y3922674D01*
X3563112Y3925366D01*
X3482543Y3927906D01*
X3414064Y3929379D01*
X3344926Y3930243D01*
X3255010Y3930548D01*
X3186430Y3930091D01*
X3118916Y3928973D01*
X3072536Y3927856D01*
X3014370Y3925976D01*
X2952038Y3923233D01*
X2903778Y3920591D01*
X2839720Y3916476D01*
X2774442Y3911803D01*
X2688234Y3904894D01*
X2621127Y3899001D01*
X2533396Y3890619D01*
X2445512Y3881526D01*
X2378252Y3874058D01*
X2338070Y3869385D01*
X2238857Y3857142D01*
X2154682Y3845966D01*
X2097735Y3837940D01*
X2048154Y3830675D01*
X1981911Y3820414D01*
X1918106Y3809949D01*
X1830425Y3794353D01*
X1754225Y3779875D01*
X1746808Y3749649D01*
X1744370Y3737762D01*
X1743202Y3727653D01*
X1743303Y3720490D01*
X1744878Y3717290D01*
X1746250Y3717086D01*
X1752447Y3717544D01*
X1762658Y3718814D01*
X1776171Y3720896D01*
X1810105Y3726992D01*
X1873910Y3739387D01*
X1922627Y3748582D01*
X1983892Y3759758D01*
X2039416Y3769512D01*
X2113940Y3782110D01*
X2188870Y3794099D01*
X2245360Y3802786D01*
X2339746Y3816604D01*
X2409190Y3826154D01*
X2466035Y3833571D01*
X2529230Y3841496D01*
X2592374Y3848963D01*
X2668066Y3857447D01*
X2756052Y3866489D01*
X2799892Y3870756D01*
X2880969Y3878021D01*
X2949143Y3883558D01*
X3022955Y3888994D01*
X3079597Y3892702D01*
X3121101Y3894734D01*
X3168396Y3896410D01*
X3220313Y3897782D01*
X3275685Y3898849D01*
X3370275Y3899814D01*
X3473653Y3899966D01*
X3545179Y3899408D01*
X3605834Y3898493D01*
X3661308Y3897172D01*
X3704996Y3895648D01*
X3742232Y3893769D01*
X3758031Y3892753D01*
X3847998Y3885285D01*
X3885641Y3881831D01*
X3911498Y3878935D01*
X3920642Y3877564D01*
X3927652Y3876243D01*
X3932682Y3874871D01*
X3936034Y3873398D01*
X3937965Y3871874D01*
X3938727Y3870147D01*
X3938574Y3868216D01*
X3937762Y3866083D01*
X3932580Y3855618D01*
X3931412Y3852316D01*
X3930802Y3849420D01*
X3930802Y3846880D01*
X3931462Y3844747D01*
X3932885Y3842918D01*
X3935069Y3841445D01*
X3938066Y3840175D01*
X3941978Y3839210D01*
X3946804Y3838448D01*
X3952595Y3837889D01*
X3967378Y3837279D01*
X3986682Y3837127D01*
X4008577Y3837279D01*
X4024223Y3837940D01*
X4030065Y3838498D01*
X4034790Y3839311D01*
X4038549Y3840378D01*
X4041444Y3841750D01*
X4043679Y3843375D01*
X4045356Y3845407D01*
X4046626Y3847795D01*
X4048455Y3852773D01*
X4049471Y3854805D01*
X4050690Y3856583D01*
X4052163Y3858158D01*
X4054043Y3859529D01*
X4056329Y3860698D01*
X4059123Y3861663D01*
X4062476Y3862425D01*
X4071061Y3863390D01*
X4082592Y3863594D01*
X4097629Y3863086D01*
X4116679Y3861866D01*
X4186885Y3856075D01*
X4203547Y3855212D01*
X4218076Y3854856D01*
X4229760Y3855110D01*
X4237888Y3855872D01*
X4240428Y3856482D01*
X4241850Y3857193D01*
X4242612Y3858056D01*
X4243019Y3858869D01*
X4243019Y3859682D01*
X4242612Y3860444D01*
X4241647Y3861206D01*
X4237888Y3862781D01*
X4231386Y3864457D01*
X4221632Y3866286D01*
X4190441Y3870960D01*
X4060342Y3887571D01*
X4178046Y4204055D01*
X4209288Y4288891D01*
X4210253Y4292193D01*
X4210507Y4294327D01*
X4210202Y4296156D01*
X4209135Y4297578D01*
X4207205Y4298696D01*
X4204258Y4299508D01*
X4200245Y4300067D01*
X4188206Y4300474D01*
X4170121Y4300118D01*
X4103319Y4297781D01*
X4069486Y4192320D01*
X4059936Y4161586D01*
X4052366Y4136440D01*
X4045356Y4110685D01*
X4043019Y4104843D01*
X4040632Y4100829D01*
X4038498Y4099407D01*
X4037837Y4099915D01*
X4035551Y4103928D01*
X4032199Y4111599D01*
X4022699Y4136186D01*
X4010609Y4170375D01*
X4004005Y4189984D01*
X3967479Y4301134D01*
G37*
G36*
X5686298Y2654808D02*
G01*
X5668010Y2630932D01*
X5736082Y2630932D01*
X5754370Y2654808D01*
G37*
G36*
X5566410Y2654808D02*
G01*
X5548122Y2630932D01*
X5615940Y2630932D01*
X5634482Y2654808D01*
G37*
G36*
X5454396Y2654808D02*
G01*
X5455158Y2630932D01*
X5523230Y2630932D01*
X5522468Y2654808D01*
G37*
G36*
X5334508Y2654808D02*
G01*
X5335270Y2630932D01*
X5403088Y2630932D01*
X5402326Y2654808D01*
G37*
G36*
X6106414Y2654808D02*
G01*
X6088126Y2630932D01*
X6155944Y2630932D01*
X6174486Y2654808D01*
G37*
G36*
X5986526Y2654808D02*
G01*
X5967984Y2630932D01*
X6036056Y2630932D01*
X6054344Y2654808D01*
G37*
G36*
X5874512Y2654808D02*
G01*
X5875274Y2630932D01*
X5943092Y2630932D01*
X5942330Y2654808D01*
G37*
G36*
X5754370Y2654808D02*
G01*
X5755132Y2630932D01*
X5823204Y2630932D01*
X5822442Y2654808D01*
G37*
G36*
X6526276Y2654808D02*
G01*
X6507988Y2630932D01*
X6576059Y2630932D01*
X6594348Y2654808D01*
G37*
G36*
X6406388Y2654808D02*
G01*
X6388100Y2630932D01*
X6455918Y2630932D01*
X6474460Y2654808D01*
G37*
G36*
X6294374Y2654808D02*
G01*
X6295136Y2630932D01*
X6363208Y2630932D01*
X6362446Y2654808D01*
G37*
G36*
X6174486Y2654808D02*
G01*
X6175248Y2630932D01*
X6243320Y2630932D01*
X6242304Y2654808D01*
G37*
G36*
X6690359Y2654808D02*
G01*
X6681724Y2630932D01*
X6918452Y2630932D01*
X6916013Y2641396D01*
X6910578Y2648813D01*
X6902043Y2653334D01*
X6890512Y2654808D01*
G37*
G36*
X6994398Y2654808D02*
G01*
X6981647Y2653334D01*
X6969759Y2648813D01*
X6958787Y2641396D01*
X6948678Y2630932D01*
X7182358Y2630932D01*
X7180021Y2641396D01*
X7174636Y2648813D01*
X7166051Y2653334D01*
X7154418Y2654808D01*
G37*
G36*
X7258303Y2654808D02*
G01*
X7245553Y2653334D01*
X7233716Y2648813D01*
X7222845Y2641396D01*
X7212838Y2630932D01*
X7449566Y2630932D01*
X7458456Y2654808D01*
G37*
G36*
X7522464Y2654808D02*
G01*
X7509713Y2653334D01*
X7497825Y2648813D01*
X7486853Y2641396D01*
X7476744Y2630932D01*
X7693659Y2630932D01*
X7702296Y2654808D01*
G37*
G36*
X7726425Y2654808D02*
G01*
X7717536Y2630932D01*
X7954518Y2630932D01*
X7952079Y2641396D01*
X7946593Y2648813D01*
X7938008Y2653334D01*
X7926324Y2654808D01*
G37*
G36*
X7990331Y2654808D02*
G01*
X7981696Y2630932D01*
X8218424Y2630932D01*
X8216087Y2641396D01*
X8210702Y2648813D01*
X8202117Y2653334D01*
X8190484Y2654808D01*
G37*
G36*
X8254492Y2654808D02*
G01*
X8245602Y2630932D01*
X8305546Y2630932D01*
X8314436Y2654808D01*
G37*
G36*
X8338312Y2654808D02*
G01*
X8329675Y2630932D01*
X8569706Y2630932D01*
X8578342Y2654808D01*
G37*
G36*
X8726424Y2654808D02*
G01*
X8713673Y2653334D01*
X8701786Y2648813D01*
X8690813Y2641396D01*
X8680704Y2630932D01*
X8897620Y2630932D01*
X8906510Y2654808D01*
G37*
G36*
X8970518Y2654808D02*
G01*
X8957767Y2653334D01*
X8945880Y2648813D01*
X8934907Y2641396D01*
X8924798Y2630932D01*
X9158478Y2630932D01*
X9156039Y2641396D01*
X9150553Y2648813D01*
X9141968Y2653334D01*
X9130284Y2654808D01*
G37*
G36*
X9438386Y2654808D02*
G01*
X9418066Y2630932D01*
X9489694Y2630932D01*
X9498330Y2654808D01*
G37*
G36*
X9194292Y2654808D02*
G01*
X9185656Y2630932D01*
X9257284Y2630932D01*
X9254490Y2654808D01*
G37*
G36*
X5661914Y2622804D02*
G01*
X5643626Y2598928D01*
X5711698Y2598928D01*
X5729986Y2622804D01*
G37*
G36*
X5455666Y2622804D02*
G01*
X5456428Y2598928D01*
X5591556Y2598928D01*
X5610098Y2622804D01*
X5542026Y2622804D01*
X5524500Y2600198D01*
X5523484Y2622804D01*
G37*
G36*
X5335524Y2622804D02*
G01*
X5336286Y2598928D01*
X5404358Y2598928D01*
X5403596Y2622804D01*
G37*
G36*
X6082030Y2622804D02*
G01*
X6063488Y2598928D01*
X6131560Y2598928D01*
X6150102Y2622804D01*
G37*
G36*
X5875528Y2622804D02*
G01*
X5876290Y2598928D01*
X6011672Y2598928D01*
X6029960Y2622804D01*
X5961888Y2622804D01*
X5944362Y2600198D01*
X5943600Y2622804D01*
G37*
G36*
X5755640Y2622804D02*
G01*
X5756402Y2598928D01*
X5824474Y2598928D01*
X5823712Y2622804D01*
G37*
G36*
X6501892Y2622804D02*
G01*
X6483604Y2598928D01*
X6551676Y2598928D01*
X6569964Y2622804D01*
G37*
G36*
X6295644Y2622804D02*
G01*
X6296406Y2598928D01*
X6431534Y2598928D01*
X6450076Y2622804D01*
X6382004Y2622804D01*
X6364478Y2600198D01*
X6363716Y2622804D01*
G37*
G36*
X6175502Y2622804D02*
G01*
X6176518Y2598928D01*
X6244336Y2598928D01*
X6243574Y2622804D01*
G37*
G36*
X6678675Y2622804D02*
G01*
X6670040Y2598928D01*
X6910070Y2598928D01*
X6916369Y2616962D01*
X6917944Y2622804D01*
G37*
G36*
X6943598Y2622804D02*
G01*
X6941413Y2618943D01*
X6939534Y2614930D01*
X6933946Y2598928D01*
X7173975Y2598928D01*
X7180275Y2616962D01*
X7182103Y2622804D01*
G37*
G36*
X7207503Y2622804D02*
G01*
X7205421Y2618943D01*
X7203694Y2614930D01*
X7198106Y2598928D01*
X7437881Y2598928D01*
X7446772Y2622804D01*
G37*
G36*
X7471664Y2622804D02*
G01*
X7469378Y2618943D01*
X7467600Y2614930D01*
X7462012Y2598928D01*
X7681975Y2598928D01*
X7690866Y2622804D01*
G37*
G36*
X7714742Y2622804D02*
G01*
X7706106Y2598928D01*
X7945881Y2598928D01*
X7952435Y2616962D01*
X7954009Y2622804D01*
G37*
G36*
X7978902Y2622804D02*
G01*
X7970012Y2598928D01*
X8210042Y2598928D01*
X8216341Y2616962D01*
X8217916Y2622804D01*
G37*
G36*
X8242808Y2622804D02*
G01*
X8233918Y2598928D01*
X8294116Y2598928D01*
X8302752Y2622804D01*
G37*
G36*
X8326881Y2622804D02*
G01*
X8317992Y2598928D01*
X8558022Y2598928D01*
X8566912Y2622804D01*
G37*
G36*
X8675624Y2622804D02*
G01*
X8673338Y2618943D01*
X8671560Y2614930D01*
X8665972Y2598928D01*
X8885936Y2598928D01*
X8894826Y2622804D01*
G37*
G36*
X8919718Y2622804D02*
G01*
X8917432Y2618943D01*
X8915654Y2614930D01*
X8910066Y2598928D01*
X9150096Y2598928D01*
X9156395Y2616962D01*
X9157970Y2622804D01*
G37*
G36*
X9411208Y2622804D02*
G01*
X9390888Y2598928D01*
X9478010Y2598928D01*
X9486900Y2622804D01*
G37*
G36*
X9182862Y2622804D02*
G01*
X9173972Y2598928D01*
X9261094Y2598928D01*
X9258300Y2622804D01*
G37*
G36*
X5637530Y2590800D02*
G01*
X5619242Y2566924D01*
X5687314Y2566924D01*
X5705602Y2590800D01*
G37*
G36*
X5456682Y2590800D02*
G01*
X5457698Y2566924D01*
X5567172Y2566924D01*
X5585714Y2590800D01*
G37*
G36*
X5336794Y2590800D02*
G01*
X5337556Y2566924D01*
X5405628Y2566924D01*
X5404866Y2590800D01*
G37*
G36*
X6057646Y2590800D02*
G01*
X6039104Y2566924D01*
X6107176Y2566924D01*
X6125718Y2590800D01*
G37*
G36*
X5876798Y2590800D02*
G01*
X5877560Y2566924D01*
X5987288Y2566924D01*
X6005576Y2590800D01*
G37*
G36*
X5756910Y2590800D02*
G01*
X5757672Y2566924D01*
X5825490Y2566924D01*
X5824728Y2590800D01*
G37*
G36*
X6477508Y2590800D02*
G01*
X6459220Y2566924D01*
X6527292Y2566924D01*
X6545580Y2590800D01*
G37*
G36*
X6296914Y2590800D02*
G01*
X6297676Y2566924D01*
X6407150Y2566924D01*
X6425692Y2590800D01*
G37*
G36*
X6176772Y2590800D02*
G01*
X6177534Y2566924D01*
X6245606Y2566924D01*
X6244844Y2590800D01*
G37*
G36*
X6847078Y2590800D02*
G01*
X6838442Y2566924D01*
X6897624Y2566924D01*
X6899554Y2570937D01*
X6907275Y2590800D01*
G37*
G36*
X6667246Y2590800D02*
G01*
X6658356Y2566924D01*
X6718300Y2566924D01*
X6727190Y2590800D01*
G37*
G36*
X7111238Y2590800D02*
G01*
X7102348Y2566924D01*
X7162292Y2566924D01*
X7171181Y2590800D01*
G37*
G36*
X6931152Y2590800D02*
G01*
X6922516Y2566924D01*
X6982459Y2566924D01*
X6991096Y2590800D01*
G37*
G36*
X7195312Y2590800D02*
G01*
X7186422Y2566924D01*
X7246366Y2566924D01*
X7255256Y2590800D01*
G37*
G36*
X7459218Y2590800D02*
G01*
X7450328Y2566924D01*
X7510525Y2566924D01*
X7519162Y2590800D01*
G37*
G36*
X7883144Y2590800D02*
G01*
X7874508Y2566924D01*
X7933690Y2566924D01*
X7937246Y2574798D01*
X7943088Y2590800D01*
G37*
G36*
X7703312Y2590800D02*
G01*
X7694422Y2566924D01*
X7754366Y2566924D01*
X7763256Y2590800D01*
G37*
G36*
X8147303Y2590800D02*
G01*
X8138414Y2566924D01*
X8197596Y2566924D01*
X8199526Y2570937D01*
X8207248Y2590800D01*
G37*
G36*
X7967218Y2590800D02*
G01*
X7958328Y2566924D01*
X8018525Y2566924D01*
X8027162Y2590800D01*
G37*
G36*
X8231124Y2590800D02*
G01*
X8222488Y2566924D01*
X8282431Y2566924D01*
X8291322Y2590800D01*
G37*
G36*
X8409178Y2590800D02*
G01*
X8400288Y2566924D01*
X8460486Y2566924D01*
X8469122Y2590800D01*
G37*
G36*
X8663178Y2590800D02*
G01*
X8654288Y2566924D01*
X8714486Y2566924D01*
X8723122Y2590800D01*
G37*
G36*
X9087104Y2590800D02*
G01*
X9078468Y2566924D01*
X9138412Y2566924D01*
X9147302Y2590800D01*
G37*
G36*
X8907272Y2590800D02*
G01*
X8898382Y2566924D01*
X8958326Y2566924D01*
X8967216Y2590800D01*
G37*
G36*
X9384030Y2590800D02*
G01*
X9363710Y2566924D01*
X9466326Y2566924D01*
X9475216Y2590800D01*
G37*
G36*
X9171178Y2590800D02*
G01*
X9162288Y2566924D01*
X9265158Y2566924D01*
X9262364Y2590800D01*
G37*
G36*
X5612892Y2558796D02*
G01*
X5594858Y2534920D01*
X5662676Y2534920D01*
X5680710Y2558796D01*
G37*
G36*
X5457698Y2558796D02*
G01*
X5458714Y2534920D01*
X5542788Y2534920D01*
X5560822Y2558796D01*
G37*
G36*
X5337556Y2558796D02*
G01*
X5338826Y2534920D01*
X5406898Y2534920D01*
X5405628Y2558796D01*
G37*
G36*
X6032754Y2558796D02*
G01*
X6014720Y2534920D01*
X6082792Y2534920D01*
X6100826Y2558796D01*
G37*
G36*
X5877560Y2558796D02*
G01*
X5878830Y2534920D01*
X5962904Y2534920D01*
X5980684Y2558796D01*
G37*
G36*
X5757672Y2558796D02*
G01*
X5758688Y2534920D01*
X5826760Y2534920D01*
X5825490Y2558796D01*
G37*
G36*
X6452870Y2558796D02*
G01*
X6434836Y2534920D01*
X6502907Y2534920D01*
X6520688Y2558796D01*
G37*
G36*
X6297676Y2558796D02*
G01*
X6298692Y2534920D01*
X6382766Y2534920D01*
X6400800Y2558796D01*
G37*
G36*
X6177534Y2558796D02*
G01*
X6178804Y2534920D01*
X6246876Y2534920D01*
X6245606Y2558796D01*
G37*
G36*
X6655308Y2558796D02*
G01*
X6646925Y2534920D01*
X6846824Y2534920D01*
X6859371Y2536393D01*
X6871106Y2540863D01*
X6881977Y2548331D01*
X6892036Y2558796D01*
G37*
G36*
X7099300Y2558796D02*
G01*
X7090918Y2534920D01*
X7150862Y2534920D01*
X7159244Y2558796D01*
G37*
G36*
X6919214Y2558796D02*
G01*
X6910831Y2534920D01*
X6970775Y2534920D01*
X6979158Y2558796D01*
G37*
G36*
X7283196Y2558796D02*
G01*
X7274814Y2534920D01*
X7414768Y2534920D01*
X7423150Y2558796D01*
G37*
G36*
X7183120Y2558796D02*
G01*
X7174738Y2534920D01*
X7234681Y2534920D01*
X7243318Y2558796D01*
G37*
G36*
X7447280Y2558796D02*
G01*
X7438898Y2534920D01*
X7658862Y2534920D01*
X7667244Y2558796D01*
G37*
G36*
X7691120Y2558796D02*
G01*
X7682738Y2534920D01*
X7882890Y2534920D01*
X7895437Y2536393D01*
X7907172Y2540863D01*
X7918043Y2548331D01*
X7928102Y2558796D01*
G37*
G36*
X7955280Y2558796D02*
G01*
X7946898Y2534920D01*
X8146796Y2534920D01*
X8159343Y2536393D01*
X8171027Y2540863D01*
X8181949Y2548331D01*
X8192008Y2558796D01*
G37*
G36*
X8219186Y2558796D02*
G01*
X8210803Y2534920D01*
X8270748Y2534920D01*
X8279130Y2558796D01*
G37*
G36*
X8397240Y2558796D02*
G01*
X8388858Y2534920D01*
X8448802Y2534920D01*
X8457184Y2558796D01*
G37*
G36*
X8651240Y2558796D02*
G01*
X8642858Y2534920D01*
X8702802Y2534920D01*
X8711184Y2558796D01*
G37*
G36*
X9075166Y2558796D02*
G01*
X9066784Y2534920D01*
X9126728Y2534920D01*
X9135110Y2558796D01*
G37*
G36*
X8895080Y2558796D02*
G01*
X8886698Y2534920D01*
X8946896Y2534920D01*
X8955278Y2558796D01*
G37*
G36*
X9356344Y2558796D02*
G01*
X9336278Y2534920D01*
X9454896Y2534920D01*
X9463278Y2558796D01*
G37*
G36*
X9159240Y2558796D02*
G01*
X9150858Y2534920D01*
X9269222Y2534920D01*
X9265920Y2558796D01*
G37*
G36*
X5588508Y2526792D02*
G01*
X5569966Y2502916D01*
X5638038Y2502916D01*
X5656326Y2526792D01*
G37*
G36*
X5458714Y2526792D02*
G01*
X5459222Y2514854D01*
X5450078Y2502916D01*
X5527548Y2502916D01*
X5527294Y2514854D01*
X5536438Y2526792D01*
G37*
G36*
X5338826Y2526792D02*
G01*
X5339588Y2502916D01*
X5407660Y2502916D01*
X5406898Y2526792D01*
G37*
G36*
X6008370Y2526792D02*
G01*
X5990082Y2502916D01*
X6057900Y2502916D01*
X6076442Y2526792D01*
G37*
G36*
X5878830Y2526792D02*
G01*
X5879084Y2514854D01*
X5869940Y2502916D01*
X5947664Y2502916D01*
X5947156Y2514854D01*
X5956300Y2526792D01*
G37*
G36*
X5758688Y2526792D02*
G01*
X5759704Y2502916D01*
X5827522Y2502916D01*
X5826760Y2526792D01*
G37*
G36*
X6428486Y2526792D02*
G01*
X6409944Y2502916D01*
X6478016Y2502916D01*
X6496304Y2526792D01*
G37*
G36*
X6298692Y2526792D02*
G01*
X6299200Y2514854D01*
X6290056Y2502916D01*
X6367526Y2502916D01*
X6367272Y2514854D01*
X6376416Y2526792D01*
G37*
G36*
X6178804Y2526792D02*
G01*
X6179566Y2502916D01*
X6247638Y2502916D01*
X6246876Y2526792D01*
G37*
G36*
X6643624Y2526792D02*
G01*
X6634734Y2502916D01*
X6871716Y2502916D01*
X6869277Y2513380D01*
X6863791Y2520797D01*
X6855206Y2525318D01*
X6843522Y2526792D01*
G37*
G36*
X7087616Y2526792D02*
G01*
X7078725Y2502916D01*
X7138924Y2502916D01*
X7147559Y2526792D01*
G37*
G36*
X6907530Y2526792D02*
G01*
X6898894Y2502916D01*
X6958838Y2502916D01*
X6967474Y2526792D01*
G37*
G36*
X7271512Y2526792D02*
G01*
X7262875Y2502916D01*
X7402830Y2502916D01*
X7411720Y2526792D01*
G37*
G36*
X7171690Y2526792D02*
G01*
X7162800Y2502916D01*
X7222744Y2502916D01*
X7231634Y2526792D01*
G37*
G36*
X7435596Y2526792D02*
G01*
X7426706Y2502916D01*
X7646924Y2502916D01*
X7655559Y2526792D01*
G37*
G36*
X7679690Y2526792D02*
G01*
X7670800Y2502916D01*
X7907528Y2502916D01*
X7905191Y2513380D01*
X7899806Y2520797D01*
X7891221Y2525318D01*
X7879588Y2526792D01*
G37*
G36*
X7943596Y2526792D02*
G01*
X7934706Y2502916D01*
X8171688Y2502916D01*
X8169249Y2513380D01*
X8163763Y2520797D01*
X8155178Y2525318D01*
X8143494Y2526792D01*
G37*
G36*
X8207502Y2526792D02*
G01*
X8198866Y2502916D01*
X8258809Y2502916D01*
X8267700Y2526792D01*
G37*
G36*
X8385556Y2526792D02*
G01*
X8376920Y2502916D01*
X8436864Y2502916D01*
X8445500Y2526792D01*
G37*
G36*
X8639556Y2526792D02*
G01*
X8630920Y2502916D01*
X8690864Y2502916D01*
X8699500Y2526792D01*
G37*
G36*
X9063482Y2526792D02*
G01*
X9054846Y2502916D01*
X9114790Y2502916D01*
X9123680Y2526792D01*
G37*
G36*
X8883650Y2526792D02*
G01*
X8874760Y2502916D01*
X8934704Y2502916D01*
X8943594Y2526792D01*
G37*
G36*
X9329674Y2526792D02*
G01*
X9308846Y2502916D01*
X9376918Y2502916D01*
X9387078Y2514854D01*
X9382760Y2502916D01*
X9442704Y2502916D01*
X9451594Y2526792D01*
G37*
G36*
X9147556Y2526792D02*
G01*
X9138920Y2502916D01*
X9198864Y2502916D01*
X9203182Y2514854D01*
X9204706Y2502916D01*
X9272778Y2502916D01*
X9269476Y2526792D01*
G37*
G36*
X5564124Y2494788D02*
G01*
X5545582Y2470912D01*
X5613654Y2470912D01*
X5631942Y2494788D01*
G37*
G36*
X5443982Y2494788D02*
G01*
X5425694Y2470912D01*
X5528818Y2470912D01*
X5528056Y2494788D01*
G37*
G36*
X5340096Y2494788D02*
G01*
X5340858Y2470912D01*
X5408676Y2470912D01*
X5407914Y2494788D01*
G37*
G36*
X5983986Y2494788D02*
G01*
X5965698Y2470912D01*
X6033516Y2470912D01*
X6052058Y2494788D01*
G37*
G36*
X5864098Y2494788D02*
G01*
X5845556Y2470912D01*
X5948680Y2470912D01*
X5947918Y2494788D01*
G37*
G36*
X5759958Y2494788D02*
G01*
X5760720Y2470912D01*
X5828792Y2470912D01*
X5828030Y2494788D01*
G37*
G36*
X6404102Y2494788D02*
G01*
X6385560Y2470912D01*
X6453632Y2470912D01*
X6471920Y2494788D01*
G37*
G36*
X6283960Y2494788D02*
G01*
X6265672Y2470912D01*
X6368796Y2470912D01*
X6368034Y2494788D01*
G37*
G36*
X6180074Y2494788D02*
G01*
X6180836Y2470912D01*
X6248908Y2470912D01*
X6247892Y2494788D01*
G37*
G36*
X6812025Y2494788D02*
G01*
X6803136Y2470912D01*
X6863080Y2470912D01*
X6869887Y2488946D01*
X6870903Y2492857D01*
X6871208Y2494788D01*
G37*
G36*
X6631940Y2494788D02*
G01*
X6623303Y2470912D01*
X6683248Y2470912D01*
X6691884Y2494788D01*
G37*
G36*
X7075931Y2494788D02*
G01*
X7067296Y2470912D01*
X7127240Y2470912D01*
X7135875Y2494788D01*
G37*
G36*
X6896100Y2494788D02*
G01*
X6887209Y2470912D01*
X6947153Y2470912D01*
X6956044Y2494788D01*
G37*
G36*
X7340092Y2494788D02*
G01*
X7331202Y2470912D01*
X7391146Y2470912D01*
X7400036Y2494788D01*
G37*
G36*
X7160006Y2494788D02*
G01*
X7151116Y2470912D01*
X7211314Y2470912D01*
X7219950Y2494788D01*
G37*
G36*
X7423912Y2494788D02*
G01*
X7415275Y2470912D01*
X7475220Y2470912D01*
X7484109Y2494788D01*
G37*
G36*
X7848092Y2494788D02*
G01*
X7839202Y2470912D01*
X7899146Y2470912D01*
X7905953Y2488946D01*
X7906969Y2492857D01*
X7907274Y2494788D01*
G37*
G36*
X7668006Y2494788D02*
G01*
X7659116Y2470912D01*
X7719314Y2470912D01*
X7727950Y2494788D01*
G37*
G36*
X8111998Y2494788D02*
G01*
X8103108Y2470912D01*
X8163306Y2470912D01*
X8169960Y2488946D01*
X8170976Y2492857D01*
X8171180Y2494788D01*
G37*
G36*
X7931912Y2494788D02*
G01*
X7923275Y2470912D01*
X7983220Y2470912D01*
X7992109Y2494788D01*
G37*
G36*
X8196072Y2494788D02*
G01*
X8187181Y2470912D01*
X8247125Y2470912D01*
X8256016Y2494788D01*
G37*
G36*
X8374125Y2494788D02*
G01*
X8365236Y2470912D01*
X8425180Y2470912D01*
X8434070Y2494788D01*
G37*
G36*
X8628126Y2494788D02*
G01*
X8619236Y2470912D01*
X8679180Y2470912D01*
X8688070Y2494788D01*
G37*
G36*
X9052052Y2494788D02*
G01*
X9043162Y2470912D01*
X9103106Y2470912D01*
X9111996Y2494788D01*
G37*
G36*
X8871966Y2494788D02*
G01*
X8863076Y2470912D01*
X8923274Y2470912D01*
X8931910Y2494788D01*
G37*
G36*
X9379966Y2494788D02*
G01*
X9371076Y2470912D01*
X9431274Y2470912D01*
X9439910Y2494788D01*
G37*
G36*
X9302496Y2494788D02*
G01*
X9281922Y2470912D01*
X9349994Y2470912D01*
X9370314Y2494788D01*
G37*
G36*
X9205722Y2494788D02*
G01*
X9208516Y2470912D01*
X9276334Y2470912D01*
X9273540Y2494788D01*
G37*
G36*
X9136126Y2494788D02*
G01*
X9127236Y2470912D01*
X9187180Y2470912D01*
X9196070Y2494788D01*
G37*
G36*
X5341112Y2462784D02*
G01*
X5341874Y2438908D01*
X5589270Y2438908D01*
X5607558Y2462784D01*
X5539486Y2462784D01*
X5529580Y2449576D01*
X5529326Y2462784D01*
X5419598Y2462784D01*
X5409692Y2449576D01*
X5409184Y2462784D01*
G37*
G36*
X5761228Y2462784D02*
G01*
X5761990Y2438908D01*
X6009132Y2438908D01*
X6027674Y2462784D01*
X5959602Y2462784D01*
X5949696Y2449576D01*
X5949188Y2462784D01*
X5839714Y2462784D01*
X5829554Y2449576D01*
X5829300Y2462784D01*
G37*
G36*
X6181090Y2462784D02*
G01*
X6182106Y2438908D01*
X6429248Y2438908D01*
X6447536Y2462784D01*
X6379718Y2462784D01*
X6369558Y2449576D01*
X6369304Y2462784D01*
X6259576Y2462784D01*
X6249670Y2449576D01*
X6249162Y2462784D01*
G37*
G36*
X6800342Y2462784D02*
G01*
X6791706Y2438908D01*
X6851650Y2438908D01*
X6860286Y2462784D01*
G37*
G36*
X6620509Y2462784D02*
G01*
X6611620Y2438908D01*
X6671564Y2438908D01*
X6680453Y2462784D01*
G37*
G36*
X7064502Y2462784D02*
G01*
X7055612Y2438908D01*
X7115556Y2438908D01*
X7124446Y2462784D01*
G37*
G36*
X6884416Y2462784D02*
G01*
X6875525Y2438908D01*
X6935724Y2438908D01*
X6944359Y2462784D01*
G37*
G36*
X7328408Y2462784D02*
G01*
X7319518Y2438908D01*
X7379716Y2438908D01*
X7388352Y2462784D01*
G37*
G36*
X7148322Y2462784D02*
G01*
X7139686Y2438908D01*
X7199630Y2438908D01*
X7208520Y2462784D01*
G37*
G36*
X7412481Y2462784D02*
G01*
X7403592Y2438908D01*
X7463536Y2438908D01*
X7472425Y2462784D01*
G37*
G36*
X7836408Y2462784D02*
G01*
X7827518Y2438908D01*
X7887716Y2438908D01*
X7896352Y2462784D01*
G37*
G36*
X7656322Y2462784D02*
G01*
X7647686Y2438908D01*
X7707630Y2438908D01*
X7716520Y2462784D01*
G37*
G36*
X8100314Y2462784D02*
G01*
X8091678Y2438908D01*
X8151622Y2438908D01*
X8160512Y2462784D01*
G37*
G36*
X7920481Y2462784D02*
G01*
X7911592Y2438908D01*
X7971536Y2438908D01*
X7980425Y2462784D01*
G37*
G36*
X8184388Y2462784D02*
G01*
X8175498Y2438908D01*
X8235696Y2438908D01*
X8244331Y2462784D01*
G37*
G36*
X8362442Y2462784D02*
G01*
X8353552Y2438908D01*
X8413496Y2438908D01*
X8422386Y2462784D01*
G37*
G36*
X8616442Y2462784D02*
G01*
X8607552Y2438908D01*
X8667496Y2438908D01*
X8676386Y2462784D01*
G37*
G36*
X9040368Y2462784D02*
G01*
X9031478Y2438908D01*
X9091676Y2438908D01*
X9100312Y2462784D01*
G37*
G36*
X8860282Y2462784D02*
G01*
X8851646Y2438908D01*
X8911590Y2438908D01*
X8920480Y2462784D01*
G37*
G36*
X9368282Y2462784D02*
G01*
X9359646Y2438908D01*
X9419590Y2438908D01*
X9428480Y2462784D01*
G37*
G36*
X9209532Y2462784D02*
G01*
X9212326Y2438908D01*
X9322816Y2438908D01*
X9343136Y2462784D01*
G37*
G36*
X9124442Y2462784D02*
G01*
X9115552Y2438908D01*
X9175496Y2438908D01*
X9184386Y2462784D01*
G37*
G36*
X5342382Y2430780D02*
G01*
X5343144Y2406904D01*
X5444744Y2406904D01*
X5462524Y2430018D01*
X5463286Y2406904D01*
X5564886Y2406904D01*
X5583174Y2430780D01*
G37*
G36*
X5762498Y2430780D02*
G01*
X5763260Y2406904D01*
X5864860Y2406904D01*
X5882386Y2430018D01*
X5883148Y2406904D01*
X5984748Y2406904D01*
X6003290Y2430780D01*
G37*
G36*
X6182360Y2430780D02*
G01*
X6183122Y2406904D01*
X6284722Y2406904D01*
X6302502Y2430018D01*
X6303264Y2406904D01*
X6404864Y2406904D01*
X6423152Y2430780D01*
G37*
G36*
X6524752Y2430780D02*
G01*
X6516116Y2406904D01*
X6576059Y2406904D01*
X6584696Y2430780D01*
G37*
G36*
X6788912Y2430780D02*
G01*
X6780022Y2406904D01*
X6839966Y2406904D01*
X6848856Y2430780D01*
G37*
G36*
X6608825Y2430780D02*
G01*
X6599936Y2406904D01*
X6659880Y2406904D01*
X6668770Y2430780D01*
G37*
G36*
X6872731Y2430780D02*
G01*
X6866280Y2412847D01*
X6864858Y2406904D01*
X7103109Y2406904D01*
X7105345Y2410917D01*
X7112762Y2430780D01*
G37*
G36*
X7136892Y2430780D02*
G01*
X7130186Y2412847D01*
X7128764Y2406904D01*
X7368031Y2406904D01*
X7376922Y2430780D01*
G37*
G36*
X7400798Y2430780D02*
G01*
X7394702Y2414778D01*
X7392924Y2406904D01*
X7612125Y2406904D01*
X7620762Y2430780D01*
G37*
G36*
X7824724Y2430780D02*
G01*
X7816088Y2406904D01*
X7876031Y2406904D01*
X7884922Y2430780D01*
G37*
G36*
X7644892Y2430780D02*
G01*
X7636002Y2406904D01*
X7695946Y2406904D01*
X7704836Y2430780D01*
G37*
G36*
X7908798Y2430780D02*
G01*
X7899908Y2406904D01*
X8139175Y2406904D01*
X8141309Y2410917D01*
X8148828Y2430780D01*
G37*
G36*
X8172703Y2430780D02*
G01*
X8164068Y2406904D01*
X8224012Y2406904D01*
X8232902Y2430780D01*
G37*
G36*
X8350758Y2430780D02*
G01*
X8342122Y2406904D01*
X8402066Y2406904D01*
X8410702Y2430780D01*
G37*
G36*
X8520684Y2430780D02*
G01*
X8512048Y2406904D01*
X8571992Y2406904D01*
X8580882Y2430780D01*
G37*
G36*
X8604758Y2430780D02*
G01*
X8598306Y2412847D01*
X8596884Y2406904D01*
X8816086Y2406904D01*
X8824722Y2430780D01*
G37*
G36*
X8848852Y2430780D02*
G01*
X8842146Y2412847D01*
X8840724Y2406904D01*
X9079230Y2406904D01*
X9081262Y2410917D01*
X9088882Y2430780D01*
G37*
G36*
X9356852Y2430780D02*
G01*
X9347962Y2406904D01*
X9407906Y2406904D01*
X9416796Y2430780D01*
G37*
G36*
X9213596Y2430780D02*
G01*
X9216390Y2406904D01*
X9295638Y2406904D01*
X9315958Y2430780D01*
G37*
G36*
X9112758Y2430780D02*
G01*
X9104122Y2406904D01*
X9164066Y2406904D01*
X9172702Y2430780D01*
G37*
G36*
X5463540Y2398776D02*
G01*
X5464302Y2374900D01*
X5540502Y2374900D01*
X5558790Y2398776D01*
G37*
G36*
X5343652Y2398776D02*
G01*
X5344414Y2374900D01*
X5420360Y2374900D01*
X5438902Y2398776D01*
G37*
G36*
X5883656Y2398776D02*
G01*
X5884418Y2374900D01*
X5960364Y2374900D01*
X5978906Y2398776D01*
G37*
G36*
X5763514Y2398776D02*
G01*
X5764276Y2374900D01*
X5840476Y2374900D01*
X5858764Y2398776D01*
G37*
G36*
X6303518Y2398776D02*
G01*
X6304280Y2374900D01*
X6380480Y2374900D01*
X6398768Y2398776D01*
G37*
G36*
X6183630Y2398776D02*
G01*
X6184392Y2374900D01*
X6260338Y2374900D01*
X6278880Y2398776D01*
G37*
G36*
X6513322Y2398776D02*
G01*
X6504431Y2374900D01*
X6564375Y2374900D01*
X6573266Y2398776D01*
G37*
G36*
X6777228Y2398776D02*
G01*
X6768338Y2374900D01*
X6828281Y2374900D01*
X6837172Y2398776D01*
G37*
G36*
X6597142Y2398776D02*
G01*
X6588506Y2374900D01*
X6648450Y2374900D01*
X6657086Y2398776D01*
G37*
G36*
X6864350Y2398776D02*
G01*
X6866686Y2388311D01*
X6872122Y2380894D01*
X6880656Y2376373D01*
X6892290Y2374900D01*
X7052309Y2374900D01*
X7065060Y2376373D01*
X7076948Y2380894D01*
X7087920Y2388311D01*
X7098030Y2398776D01*
G37*
G36*
X7128509Y2398776D02*
G01*
X7130846Y2388311D01*
X7136231Y2380894D01*
X7144816Y2376373D01*
X7156450Y2374900D01*
X7356348Y2374900D01*
X7365238Y2398776D01*
G37*
G36*
X7392416Y2398776D02*
G01*
X7394752Y2388311D01*
X7400188Y2380894D01*
X7408722Y2376373D01*
X7420356Y2374900D01*
X7600442Y2374900D01*
X7609078Y2398776D01*
G37*
G36*
X7813294Y2398776D02*
G01*
X7804403Y2374900D01*
X7864348Y2374900D01*
X7873238Y2398776D01*
G37*
G36*
X7633208Y2398776D02*
G01*
X7624318Y2374900D01*
X7684516Y2374900D01*
X7693152Y2398776D01*
G37*
G36*
X7897114Y2398776D02*
G01*
X7888478Y2374900D01*
X8088375Y2374900D01*
X8101126Y2376373D01*
X8113014Y2380894D01*
X8123986Y2388311D01*
X8134096Y2398776D01*
G37*
G36*
X8161274Y2398776D02*
G01*
X8152384Y2374900D01*
X8212328Y2374900D01*
X8221218Y2398776D01*
G37*
G36*
X8339074Y2398776D02*
G01*
X8330438Y2374900D01*
X8390382Y2374900D01*
X8399272Y2398776D01*
G37*
G36*
X8509254Y2398776D02*
G01*
X8500364Y2374900D01*
X8560308Y2374900D01*
X8569198Y2398776D01*
G37*
G36*
X8596376Y2398776D02*
G01*
X8598712Y2388311D01*
X8604097Y2380894D01*
X8612682Y2376373D01*
X8624316Y2374900D01*
X8804402Y2374900D01*
X8813292Y2398776D01*
G37*
G36*
X8840470Y2398776D02*
G01*
X8842806Y2388311D01*
X8848191Y2380894D01*
X8856776Y2376373D01*
X8868410Y2374900D01*
X9028430Y2374900D01*
X9041180Y2376373D01*
X9053017Y2380894D01*
X9063888Y2388311D01*
X9073896Y2398776D01*
G37*
G36*
X9345168Y2398776D02*
G01*
X9336278Y2374900D01*
X9396476Y2374900D01*
X9405112Y2398776D01*
G37*
G36*
X9217660Y2398776D02*
G01*
X9220454Y2374900D01*
X9268460Y2374900D01*
X9288780Y2398776D01*
G37*
G36*
X9101074Y2398776D02*
G01*
X9092438Y2374900D01*
X9152382Y2374900D01*
X9161272Y2398776D01*
G37*
D20*
X3579622Y8513063D02*
G01*
X3486150Y8513063D01*
X3532886Y8559800D02*
G01*
X3532886Y8466328D01*
X3520186Y8280400D02*
G01*
X3520186Y8186928D01*
X544321Y8525763D02*
G01*
X450850Y8525763D01*
X497586Y8572500D02*
G01*
X497586Y8479028D01*
X484886Y8293100D02*
G01*
X484886Y8199628D01*
X3046222Y2937763D02*
G01*
X2952750Y2937763D01*
X2999486Y2984500D02*
G01*
X2999486Y2891028D01*
X2986786Y3213100D02*
G01*
X2986786Y3119628D01*
X1272286Y3213100D02*
G01*
X1272286Y3119628D01*
X1331721Y2937763D02*
G01*
X1238250Y2937763D01*
X1284986Y2984500D02*
G01*
X1284986Y2891028D01*
D18*
X7378700Y8599678D02*
G01*
X7378700Y8405876D01*
X7378700Y8599678D02*
G01*
X7443470Y8599678D01*
X7471156Y8590534D01*
X7489443Y8571992D01*
X7498841Y8553450D01*
X7507986Y8525763D01*
X7507986Y8479789D01*
X7498841Y8451850D01*
X7489443Y8433562D01*
X7471156Y8415020D01*
X7443470Y8405876D01*
X7378700Y8405876D01*
X7568945Y8599678D02*
G01*
X7578090Y8590534D01*
X7587488Y8599678D01*
X7578090Y8609076D01*
X7568945Y8599678D01*
X7578090Y8535162D02*
G01*
X7578090Y8405876D01*
X7750047Y8507476D02*
G01*
X7740650Y8525763D01*
X7712963Y8535162D01*
X7685277Y8535162D01*
X7657591Y8525763D01*
X7648447Y8507476D01*
X7657591Y8488934D01*
X7676134Y8479789D01*
X7722361Y8470392D01*
X7740650Y8461247D01*
X7750047Y8442705D01*
X7750047Y8433562D01*
X7740650Y8415020D01*
X7712963Y8405876D01*
X7685277Y8405876D01*
X7657591Y8415020D01*
X7648447Y8433562D01*
X7811008Y8535162D02*
G01*
X7811008Y8341105D01*
X7811008Y8507476D02*
G01*
X7829550Y8525763D01*
X7847838Y8535162D01*
X7875524Y8535162D01*
X7894065Y8525763D01*
X7912608Y8507476D01*
X7921752Y8479789D01*
X7921752Y8461247D01*
X7912608Y8433562D01*
X7894065Y8415020D01*
X7875524Y8405876D01*
X7847838Y8405876D01*
X7829550Y8415020D01*
X7811008Y8433562D01*
X7982711Y8599678D02*
G01*
X7982711Y8405876D01*
X8154670Y8535162D02*
G01*
X8154670Y8405876D01*
X8154670Y8507476D02*
G01*
X8136127Y8525763D01*
X8117586Y8535162D01*
X8089900Y8535162D01*
X8071358Y8525763D01*
X8053070Y8507476D01*
X8043672Y8479789D01*
X8043672Y8461247D01*
X8053070Y8433562D01*
X8071358Y8415020D01*
X8089900Y8405876D01*
X8117586Y8405876D01*
X8136127Y8415020D01*
X8154670Y8433562D01*
X8224774Y8535162D02*
G01*
X8280145Y8405876D01*
X8335518Y8535162D02*
G01*
X8280145Y8405876D01*
X8261604Y8368792D01*
X8243315Y8350250D01*
X8224774Y8341105D01*
X8215629Y8341105D01*
D21*
X4051300Y8319515D02*
G01*
X4092956Y8210550D01*
X4134358Y8319515D02*
G01*
X4092956Y8210550D01*
X4246625Y8293608D02*
G01*
X4241545Y8304021D01*
X4231131Y8314436D01*
X4220718Y8319515D01*
X4199890Y8319515D01*
X4189475Y8314436D01*
X4179061Y8304021D01*
X4173981Y8293608D01*
X4168647Y8277860D01*
X4168647Y8251952D01*
X4173981Y8236458D01*
X4179061Y8226044D01*
X4189475Y8215629D01*
X4199890Y8210550D01*
X4220718Y8210550D01*
X4231131Y8215629D01*
X4241545Y8226044D01*
X4246625Y8236458D01*
X4358893Y8293608D02*
G01*
X4353559Y8304021D01*
X4343400Y8314436D01*
X4332986Y8319515D01*
X4312158Y8319515D01*
X4301743Y8314436D01*
X4291329Y8304021D01*
X4286250Y8293608D01*
X4280915Y8277860D01*
X4280915Y8251952D01*
X4286250Y8236458D01*
X4291329Y8226044D01*
X4301743Y8215629D01*
X4312158Y8210550D01*
X4332986Y8210550D01*
X4343400Y8215629D01*
X4353559Y8226044D01*
X4358893Y8236458D01*
X4141977Y8026908D02*
G01*
X4136643Y8037321D01*
X4126229Y8047736D01*
X4116070Y8052815D01*
X4095241Y8052815D01*
X4084827Y8047736D01*
X4074413Y8037321D01*
X4069079Y8026908D01*
X4064000Y8011160D01*
X4064000Y7985252D01*
X4069079Y7969758D01*
X4074413Y7959344D01*
X4084827Y7948929D01*
X4095241Y7943850D01*
X4116070Y7943850D01*
X4126229Y7948929D01*
X4136643Y7959344D01*
X4141977Y7969758D01*
X4141977Y7985252D01*
X4116070Y7985252D02*
G01*
X4141977Y7985252D01*
X4176268Y8052815D02*
G01*
X4176268Y7943850D01*
X4176268Y8052815D02*
G01*
X4248911Y7943850D01*
X4248911Y8052815D02*
G01*
X4248911Y7943850D01*
X4283202Y8052815D02*
G01*
X4283202Y7943850D01*
X4283202Y8052815D02*
G01*
X4319524Y8052815D01*
X4335272Y8047736D01*
X4345686Y8037321D01*
X4350765Y8026908D01*
X4356100Y8011160D01*
X4356100Y7985252D01*
X4350765Y7969758D01*
X4345686Y7959344D01*
X4335272Y7948929D01*
X4319524Y7943850D01*
X4283202Y7943850D01*
D20*
X1042415Y2491486D02*
G01*
X1042415Y2434336D01*
X1000760Y2465578D01*
X1000760Y2449829D01*
X995679Y2439670D01*
X990600Y2434336D01*
X974852Y2429255D01*
X964437Y2429255D01*
X948944Y2434336D01*
X938529Y2444750D01*
X933450Y2460244D01*
X933450Y2475992D01*
X938529Y2491486D01*
X943610Y2496820D01*
X954023Y2501900D01*
X1042415Y2394965D02*
G01*
X933450Y2353310D01*
X1042415Y2311654D02*
G01*
X933450Y2353310D01*
X4100322Y2455163D02*
G01*
X4006850Y2455163D01*
X4053586Y2501900D02*
G01*
X4053586Y2408428D01*
X3799586Y2489200D02*
G01*
X3799586Y2395728D01*
X6415277Y8141208D02*
G01*
X6409943Y8151621D01*
X6399529Y8162036D01*
X6389370Y8167115D01*
X6368541Y8167115D01*
X6358127Y8162036D01*
X6347713Y8151621D01*
X6342379Y8141208D01*
X6337300Y8125460D01*
X6337300Y8099552D01*
X6342379Y8084058D01*
X6347713Y8073644D01*
X6358127Y8063229D01*
X6368541Y8058150D01*
X6389370Y8058150D01*
X6399529Y8063229D01*
X6409943Y8073644D01*
X6415277Y8084058D01*
X6415277Y8099552D01*
X6389370Y8099552D02*
G01*
X6415277Y8099552D01*
X6449568Y8167115D02*
G01*
X6449568Y8058150D01*
X6449568Y8167115D02*
G01*
X6522211Y8058150D01*
X6522211Y8167115D02*
G01*
X6522211Y8058150D01*
X6556502Y8167115D02*
G01*
X6556502Y8058150D01*
X6556502Y8167115D02*
G01*
X6592824Y8167115D01*
X6608572Y8162036D01*
X6618986Y8151621D01*
X6624065Y8141208D01*
X6629400Y8125460D01*
X6629400Y8099552D01*
X6624065Y8084058D01*
X6618986Y8073644D01*
X6608572Y8063229D01*
X6592824Y8058150D01*
X6556502Y8058150D01*
X4611115Y3200400D02*
G01*
X4502150Y3200400D01*
X4611115Y3200400D02*
G01*
X4502150Y3158744D01*
X4611115Y3117342D02*
G01*
X4502150Y3158744D01*
X4611115Y3117342D02*
G01*
X4502150Y3117342D01*
X4611115Y3083052D02*
G01*
X4502150Y3083052D01*
X4595622Y2975863D02*
G01*
X4606036Y2986278D01*
X4611115Y3002026D01*
X4611115Y3022600D01*
X4606036Y3038347D01*
X4595622Y3048762D01*
X4585208Y3048762D01*
X4574793Y3043428D01*
X4569459Y3038347D01*
X4564379Y3027934D01*
X4553965Y2996692D01*
X4548886Y2986278D01*
X4543552Y2981197D01*
X4533138Y2975863D01*
X4517643Y2975863D01*
X4507229Y2986278D01*
X4502150Y3002026D01*
X4502150Y3022600D01*
X4507229Y3038347D01*
X4517643Y3048762D01*
X4611115Y2910586D02*
G01*
X4606036Y2921000D01*
X4595622Y2931160D01*
X4585208Y2936494D01*
X4569459Y2941573D01*
X4543552Y2941573D01*
X4528058Y2936494D01*
X4517643Y2931160D01*
X4507229Y2921000D01*
X4502150Y2910586D01*
X4502150Y2889757D01*
X4507229Y2879344D01*
X4517643Y2868929D01*
X4528058Y2863850D01*
X4543552Y2858515D01*
X4569459Y2858515D01*
X4585208Y2863850D01*
X4595622Y2868929D01*
X4606036Y2879344D01*
X4611115Y2889757D01*
X4611115Y2910586D01*
X4865115Y9207500D02*
G01*
X4756150Y9207500D01*
X4865115Y9207500D02*
G01*
X4756150Y9165844D01*
X4865115Y9124442D02*
G01*
X4756150Y9165844D01*
X4865115Y9124442D02*
G01*
X4756150Y9124442D01*
X4865115Y9058910D02*
G01*
X4860036Y9069324D01*
X4849622Y9079737D01*
X4839208Y9084818D01*
X4823459Y9090152D01*
X4797552Y9090152D01*
X4782058Y9084818D01*
X4771643Y9079737D01*
X4761229Y9069324D01*
X4756150Y9058910D01*
X4756150Y9038081D01*
X4761229Y9027668D01*
X4771643Y9017254D01*
X4782058Y9012174D01*
X4797552Y9006839D01*
X4823459Y9006839D01*
X4839208Y9012174D01*
X4849622Y9017254D01*
X4860036Y9027668D01*
X4865115Y9038081D01*
X4865115Y9058910D01*
X4849622Y8899905D02*
G01*
X4860036Y8910320D01*
X4865115Y8925813D01*
X4865115Y8946642D01*
X4860036Y8962389D01*
X4849622Y8972550D01*
X4839208Y8972550D01*
X4828793Y8967470D01*
X4823459Y8962389D01*
X4818379Y8951976D01*
X4807965Y8920734D01*
X4802886Y8910320D01*
X4797552Y8905239D01*
X4787138Y8899905D01*
X4771643Y8899905D01*
X4761229Y8910320D01*
X4756150Y8925813D01*
X4756150Y8946642D01*
X4761229Y8962389D01*
X4771643Y8972550D01*
X4865115Y8865615D02*
G01*
X4756150Y8865615D01*
X4089400Y7798815D02*
G01*
X4089400Y7689850D01*
X4089400Y7798815D02*
G01*
X4136136Y7798815D01*
X4151629Y7793736D01*
X4156963Y7788402D01*
X4162043Y7777987D01*
X4162043Y7767573D01*
X4156963Y7757160D01*
X4151629Y7752079D01*
X4136136Y7747000D01*
X4089400Y7747000D01*
X4125722Y7747000D02*
G01*
X4162043Y7689850D01*
X4196334Y7798815D02*
G01*
X4269231Y7689850D01*
X4269231Y7798815D02*
G01*
X4196334Y7689850D01*
X4836922Y3064255D02*
G01*
X4847336Y3074670D01*
X4852415Y3090163D01*
X4852415Y3110992D01*
X4847336Y3126486D01*
X4836922Y3136900D01*
X4826508Y3136900D01*
X4816093Y3131820D01*
X4810759Y3126486D01*
X4805679Y3116071D01*
X4795265Y3084829D01*
X4790186Y3074670D01*
X4784852Y3069336D01*
X4774438Y3064255D01*
X4758943Y3064255D01*
X4748529Y3074670D01*
X4743450Y3090163D01*
X4743450Y3110992D01*
X4748529Y3126486D01*
X4758943Y3136900D01*
X4826508Y2951987D02*
G01*
X4836922Y2957068D01*
X4847336Y2967481D01*
X4852415Y2977895D01*
X4852415Y2998723D01*
X4847336Y3009137D01*
X4836922Y3019552D01*
X4826508Y3024631D01*
X4810759Y3029965D01*
X4784852Y3029965D01*
X4769358Y3024631D01*
X4758943Y3019552D01*
X4748529Y3009137D01*
X4743450Y2998723D01*
X4743450Y2977895D01*
X4748529Y2967481D01*
X4758943Y2957068D01*
X4769358Y2951987D01*
X4852415Y2917697D02*
G01*
X4743450Y2917697D01*
X4852415Y2844800D02*
G01*
X4779772Y2917697D01*
X4805679Y2891789D02*
G01*
X4743450Y2844800D01*
X6409943Y8646921D02*
G01*
X6399529Y8657336D01*
X6384036Y8662415D01*
X6363208Y8662415D01*
X6347713Y8657336D01*
X6337300Y8646921D01*
X6337300Y8636508D01*
X6342379Y8626094D01*
X6347713Y8620760D01*
X6358127Y8615679D01*
X6389370Y8605265D01*
X6399529Y8600186D01*
X6404863Y8594852D01*
X6409943Y8584437D01*
X6409943Y8568944D01*
X6399529Y8558529D01*
X6384036Y8553450D01*
X6363208Y8553450D01*
X6347713Y8558529D01*
X6337300Y8568944D01*
X6522211Y8636508D02*
G01*
X6517131Y8646921D01*
X6506718Y8657336D01*
X6496304Y8662415D01*
X6475475Y8662415D01*
X6465061Y8657336D01*
X6454647Y8646921D01*
X6449568Y8636508D01*
X6444234Y8620760D01*
X6444234Y8594852D01*
X6449568Y8579358D01*
X6454647Y8568944D01*
X6465061Y8558529D01*
X6475475Y8553450D01*
X6496304Y8553450D01*
X6506718Y8558529D01*
X6517131Y8568944D01*
X6522211Y8579358D01*
X6556502Y8662415D02*
G01*
X6556502Y8553450D01*
X6556502Y8553450D02*
G01*
X6618986Y8553450D01*
X6384543Y8913621D02*
G01*
X6374129Y8924036D01*
X6358636Y8929115D01*
X6337808Y8929115D01*
X6322313Y8924036D01*
X6311900Y8913621D01*
X6311900Y8903208D01*
X6316979Y8892794D01*
X6322313Y8887460D01*
X6332727Y8882379D01*
X6363970Y8871965D01*
X6374129Y8866886D01*
X6379463Y8861552D01*
X6384543Y8851137D01*
X6384543Y8835644D01*
X6374129Y8825229D01*
X6358636Y8820150D01*
X6337808Y8820150D01*
X6322313Y8825229D01*
X6311900Y8835644D01*
X6418834Y8929115D02*
G01*
X6418834Y8820150D01*
X6418834Y8929115D02*
G01*
X6455409Y8929115D01*
X6470904Y8924036D01*
X6481318Y8913621D01*
X6486397Y8903208D01*
X6491731Y8887460D01*
X6491731Y8861552D01*
X6486397Y8846058D01*
X6481318Y8835644D01*
X6470904Y8825229D01*
X6455409Y8820150D01*
X6418834Y8820150D01*
X6567424Y8929115D02*
G01*
X6526022Y8820150D01*
X6567424Y8929115D02*
G01*
X6609079Y8820150D01*
X6541515Y8856471D02*
G01*
X6593586Y8856471D01*
X4595622Y8995155D02*
G01*
X4606036Y9005570D01*
X4611115Y9021063D01*
X4611115Y9041892D01*
X4606036Y9057386D01*
X4595622Y9067800D01*
X4585208Y9067800D01*
X4574793Y9062720D01*
X4569459Y9057386D01*
X4564379Y9046971D01*
X4553965Y9015729D01*
X4548886Y9005570D01*
X4543552Y9000236D01*
X4533138Y8995155D01*
X4517643Y8995155D01*
X4507229Y9005570D01*
X4502150Y9021063D01*
X4502150Y9041892D01*
X4507229Y9057386D01*
X4517643Y9067800D01*
X4595622Y8887968D02*
G01*
X4606036Y8898381D01*
X4611115Y8914129D01*
X4611115Y8934704D01*
X4606036Y8950452D01*
X4595622Y8960865D01*
X4585208Y8960865D01*
X4574793Y8955531D01*
X4569459Y8950452D01*
X4564379Y8940037D01*
X4553965Y8908795D01*
X4548886Y8898381D01*
X4543552Y8893302D01*
X4533138Y8887968D01*
X4517643Y8887968D01*
X4507229Y8898381D01*
X4502150Y8914129D01*
X4502150Y8934704D01*
X4507229Y8950452D01*
X4517643Y8960865D01*
X4113022Y7519415D02*
G01*
X4113022Y7410450D01*
X4076700Y7519415D02*
G01*
X4149343Y7519415D01*
X4183634Y7519415D02*
G01*
X4256531Y7410450D01*
X4256531Y7519415D02*
G01*
X4183634Y7410450D01*
X6311900Y8408415D02*
G01*
X6353556Y8299450D01*
X6394958Y8408415D02*
G01*
X6353556Y8299450D01*
X6507225Y8382508D02*
G01*
X6502145Y8392921D01*
X6491731Y8403336D01*
X6481318Y8408415D01*
X6460490Y8408415D01*
X6450075Y8403336D01*
X6439661Y8392921D01*
X6434581Y8382508D01*
X6429247Y8366760D01*
X6429247Y8340852D01*
X6434581Y8325358D01*
X6439661Y8314944D01*
X6450075Y8304529D01*
X6460490Y8299450D01*
X6481318Y8299450D01*
X6491731Y8304529D01*
X6502145Y8314944D01*
X6507225Y8325358D01*
X6619493Y8382508D02*
G01*
X6614159Y8392921D01*
X6604000Y8403336D01*
X6593586Y8408415D01*
X6572758Y8408415D01*
X6562343Y8403336D01*
X6551929Y8392921D01*
X6546850Y8382508D01*
X6541515Y8366760D01*
X6541515Y8340852D01*
X6546850Y8325358D01*
X6551929Y8314944D01*
X6562343Y8304529D01*
X6572758Y8299450D01*
X6593586Y8299450D01*
X6604000Y8304529D01*
X6614159Y8314944D01*
X6619493Y8325358D01*
X1563115Y2460244D02*
G01*
X1454150Y2501900D01*
X1563115Y2460244D02*
G01*
X1454150Y2418842D01*
X1490471Y2486405D02*
G01*
X1490471Y2434336D01*
X1563115Y2353310D02*
G01*
X1558036Y2368804D01*
X1542287Y2379218D01*
X1516379Y2384552D01*
X1500886Y2384552D01*
X1474723Y2379218D01*
X1459229Y2368804D01*
X1454150Y2353310D01*
X1454150Y2342895D01*
X1459229Y2327402D01*
X1474723Y2316987D01*
X1500886Y2311654D01*
X1516379Y2311654D01*
X1542287Y2316987D01*
X1558036Y2327402D01*
X1563115Y2342895D01*
X1563115Y2353310D01*
X1804415Y2447544D02*
G01*
X1695450Y2489200D01*
X1804415Y2447544D02*
G01*
X1695450Y2406142D01*
X1731771Y2473705D02*
G01*
X1731771Y2421636D01*
X1783587Y2371852D02*
G01*
X1788921Y2361437D01*
X1804415Y2345689D01*
X1695450Y2345689D01*
X2071115Y2460244D02*
G01*
X1962150Y2501900D01*
X2071115Y2460244D02*
G01*
X1962150Y2418842D01*
X1998472Y2486405D02*
G01*
X1998472Y2434336D01*
X2045208Y2379218D02*
G01*
X2050288Y2379218D01*
X2060702Y2374137D01*
X2066036Y2368804D01*
X2071115Y2358389D01*
X2071115Y2337815D01*
X2066036Y2327402D01*
X2060702Y2322068D01*
X2050288Y2316987D01*
X2039874Y2316987D01*
X2029459Y2322068D01*
X2013965Y2332481D01*
X1962150Y2384552D01*
X1962150Y2311654D01*
X2325115Y2460244D02*
G01*
X2216150Y2501900D01*
X2325115Y2460244D02*
G01*
X2216150Y2418842D01*
X2252472Y2486405D02*
G01*
X2252472Y2434336D01*
X2325115Y2374137D02*
G01*
X2325115Y2316987D01*
X2283459Y2348229D01*
X2283459Y2332481D01*
X2278379Y2322068D01*
X2273300Y2316987D01*
X2257552Y2311654D01*
X2247138Y2311654D01*
X2231643Y2316987D01*
X2221229Y2327402D01*
X2216150Y2342895D01*
X2216150Y2358389D01*
X2221229Y2374137D01*
X2226309Y2379218D01*
X2236724Y2384552D01*
X2566415Y2460244D02*
G01*
X2457450Y2501900D01*
X2566415Y2460244D02*
G01*
X2457450Y2418842D01*
X2493772Y2486405D02*
G01*
X2493772Y2434336D01*
X2566415Y2332481D02*
G01*
X2493772Y2384552D01*
X2493772Y2306573D01*
X2566415Y2332481D02*
G01*
X2457450Y2332481D01*
X2833115Y2460244D02*
G01*
X2724150Y2501900D01*
X2833115Y2460244D02*
G01*
X2724150Y2418842D01*
X2760472Y2486405D02*
G01*
X2760472Y2434336D01*
X2833115Y2322068D02*
G01*
X2833115Y2374137D01*
X2786379Y2379218D01*
X2791459Y2374137D01*
X2796793Y2358389D01*
X2796793Y2342895D01*
X2791459Y2327402D01*
X2781300Y2316987D01*
X2765552Y2311654D01*
X2755138Y2311654D01*
X2739643Y2316987D01*
X2729229Y2327402D01*
X2724150Y2342895D01*
X2724150Y2358389D01*
X2729229Y2374137D01*
X2734309Y2379218D01*
X2744724Y2384552D01*
X3328415Y9156700D02*
G01*
X3219450Y9156700D01*
X3328415Y9156700D02*
G01*
X3328415Y9120378D01*
X3323336Y9104629D01*
X3312922Y9094470D01*
X3302508Y9089136D01*
X3286759Y9084055D01*
X3260852Y9084055D01*
X3245358Y9089136D01*
X3234943Y9094470D01*
X3224529Y9104629D01*
X3219450Y9120378D01*
X3219450Y9156700D01*
X3302508Y9044431D02*
G01*
X3307588Y9044431D01*
X3318002Y9039352D01*
X3323336Y9034018D01*
X3328415Y9023604D01*
X3328415Y9003029D01*
X3323336Y8992615D01*
X3318002Y8987281D01*
X3307588Y8982202D01*
X3297174Y8982202D01*
X3286759Y8987281D01*
X3271265Y8997695D01*
X3219450Y9049765D01*
X3219450Y8976868D01*
X3074415Y9156700D02*
G01*
X2965450Y9156700D01*
X3074415Y9156700D02*
G01*
X3074415Y9120378D01*
X3069336Y9104629D01*
X3058922Y9094470D01*
X3048508Y9089136D01*
X3032759Y9084055D01*
X3006852Y9084055D01*
X2991358Y9089136D01*
X2980943Y9094470D01*
X2970529Y9104629D01*
X2965450Y9120378D01*
X2965450Y9156700D01*
X3074415Y9039352D02*
G01*
X3074415Y8982202D01*
X3032759Y9013189D01*
X3032759Y8997695D01*
X3027679Y8987281D01*
X3022600Y8982202D01*
X3006852Y8976868D01*
X2996438Y8976868D01*
X2980943Y8982202D01*
X2970529Y8992615D01*
X2965450Y9008110D01*
X2965450Y9023604D01*
X2970529Y9039352D01*
X2975609Y9044431D01*
X2986024Y9049765D01*
X2820415Y9156700D02*
G01*
X2711450Y9156700D01*
X2820415Y9156700D02*
G01*
X2820415Y9120378D01*
X2815336Y9104629D01*
X2804922Y9094470D01*
X2794508Y9089136D01*
X2778759Y9084055D01*
X2752852Y9084055D01*
X2737358Y9089136D01*
X2726943Y9094470D01*
X2716529Y9104629D01*
X2711450Y9120378D01*
X2711450Y9156700D01*
X2820415Y8997695D02*
G01*
X2747772Y9049765D01*
X2747772Y8971787D01*
X2820415Y8997695D02*
G01*
X2711450Y8997695D01*
X2566415Y9156700D02*
G01*
X2457450Y9156700D01*
X2566415Y9156700D02*
G01*
X2566415Y9120378D01*
X2561336Y9104629D01*
X2550922Y9094470D01*
X2540508Y9089136D01*
X2524759Y9084055D01*
X2498852Y9084055D01*
X2483358Y9089136D01*
X2472943Y9094470D01*
X2462529Y9104629D01*
X2457450Y9120378D01*
X2457450Y9156700D01*
X2566415Y8987281D02*
G01*
X2566415Y9039352D01*
X2519679Y9044431D01*
X2524759Y9039352D01*
X2530093Y9023604D01*
X2530093Y9008110D01*
X2524759Y8992615D01*
X2514600Y8982202D01*
X2498852Y8976868D01*
X2488438Y8976868D01*
X2472943Y8982202D01*
X2462529Y8992615D01*
X2457450Y9008110D01*
X2457450Y9023604D01*
X2462529Y9039352D01*
X2467609Y9044431D01*
X2478024Y9049765D01*
X2312415Y9156700D02*
G01*
X2203450Y9156700D01*
X2312415Y9156700D02*
G01*
X2312415Y9120378D01*
X2307336Y9104629D01*
X2296922Y9094470D01*
X2286508Y9089136D01*
X2270759Y9084055D01*
X2244852Y9084055D01*
X2229358Y9089136D01*
X2218943Y9094470D01*
X2208529Y9104629D01*
X2203450Y9120378D01*
X2203450Y9156700D01*
X2296922Y8987281D02*
G01*
X2307336Y8992615D01*
X2312415Y9008110D01*
X2312415Y9018524D01*
X2307336Y9034018D01*
X2291588Y9044431D01*
X2265679Y9049765D01*
X2239772Y9049765D01*
X2218943Y9044431D01*
X2208529Y9034018D01*
X2203450Y9018524D01*
X2203450Y9013189D01*
X2208529Y8997695D01*
X2218943Y8987281D01*
X2234438Y8982202D01*
X2239772Y8982202D01*
X2255265Y8987281D01*
X2265679Y8997695D01*
X2270759Y9013189D01*
X2270759Y9018524D01*
X2265679Y9034018D01*
X2255265Y9044431D01*
X2239772Y9049765D01*
X2071115Y9156700D02*
G01*
X1962150Y9156700D01*
X2071115Y9156700D02*
G01*
X2071115Y9120378D01*
X2066036Y9104629D01*
X2055622Y9094470D01*
X2045208Y9089136D01*
X2029459Y9084055D01*
X2003552Y9084055D01*
X1988058Y9089136D01*
X1977643Y9094470D01*
X1967229Y9104629D01*
X1962150Y9120378D01*
X1962150Y9156700D01*
X2071115Y8976868D02*
G01*
X1962150Y9028937D01*
X2071115Y9049765D02*
G01*
X2071115Y8976868D01*
X1804415Y9156700D02*
G01*
X1695450Y9156700D01*
X1804415Y9156700D02*
G01*
X1804415Y9120378D01*
X1799336Y9104629D01*
X1788921Y9094470D01*
X1778507Y9089136D01*
X1762760Y9084055D01*
X1736852Y9084055D01*
X1721357Y9089136D01*
X1710944Y9094470D01*
X1700529Y9104629D01*
X1695450Y9120378D01*
X1695450Y9156700D01*
X1804415Y9023604D02*
G01*
X1799336Y9039352D01*
X1788921Y9044431D01*
X1778507Y9044431D01*
X1768094Y9039352D01*
X1762760Y9028937D01*
X1757679Y9008110D01*
X1752600Y8992615D01*
X1742186Y8982202D01*
X1731771Y8976868D01*
X1716023Y8976868D01*
X1705610Y8982202D01*
X1700529Y8987281D01*
X1695450Y9003029D01*
X1695450Y9023604D01*
X1700529Y9039352D01*
X1705610Y9044431D01*
X1716023Y9049765D01*
X1731771Y9049765D01*
X1742186Y9044431D01*
X1752600Y9034018D01*
X1757679Y9018524D01*
X1762760Y8997695D01*
X1768094Y8987281D01*
X1778507Y8982202D01*
X1788921Y8982202D01*
X1799336Y8987281D01*
X1804415Y9003029D01*
X1804415Y9023604D01*
X1550415Y9156700D02*
G01*
X1441450Y9156700D01*
X1550415Y9156700D02*
G01*
X1550415Y9120378D01*
X1545336Y9104629D01*
X1534921Y9094470D01*
X1524507Y9089136D01*
X1508760Y9084055D01*
X1482852Y9084055D01*
X1467357Y9089136D01*
X1456944Y9094470D01*
X1446529Y9104629D01*
X1441450Y9120378D01*
X1441450Y9156700D01*
X1514094Y8982202D02*
G01*
X1498600Y8987281D01*
X1488186Y8997695D01*
X1482852Y9013189D01*
X1482852Y9018524D01*
X1488186Y9034018D01*
X1498600Y9044431D01*
X1514094Y9049765D01*
X1519173Y9049765D01*
X1534921Y9044431D01*
X1545336Y9034018D01*
X1550415Y9018524D01*
X1550415Y9013189D01*
X1545336Y8997695D01*
X1534921Y8987281D01*
X1514094Y8982202D01*
X1488186Y8982202D01*
X1462023Y8987281D01*
X1446529Y8997695D01*
X1441450Y9013189D01*
X1441450Y9023604D01*
X1446529Y9039352D01*
X1456944Y9044431D01*
X1296415Y9156700D02*
G01*
X1187450Y9156700D01*
X1296415Y9156700D02*
G01*
X1296415Y9120378D01*
X1291336Y9104629D01*
X1280921Y9094470D01*
X1270507Y9089136D01*
X1254760Y9084055D01*
X1228852Y9084055D01*
X1213357Y9089136D01*
X1202944Y9094470D01*
X1192529Y9104629D01*
X1187450Y9120378D01*
X1187450Y9156700D01*
X1275587Y9049765D02*
G01*
X1280921Y9039352D01*
X1296415Y9023604D01*
X1187450Y9023604D01*
X1296415Y8958326D02*
G01*
X1291336Y8973820D01*
X1275587Y8984234D01*
X1249679Y8989313D01*
X1234186Y8989313D01*
X1208023Y8984234D01*
X1192529Y8973820D01*
X1187450Y8958326D01*
X1187450Y8947912D01*
X1192529Y8932163D01*
X1208023Y8921750D01*
X1234186Y8916670D01*
X1249679Y8916670D01*
X1275587Y8921750D01*
X1291336Y8932163D01*
X1296415Y8947912D01*
X1296415Y8958326D01*
X1042415Y9156700D02*
G01*
X933450Y9156700D01*
X1042415Y9156700D02*
G01*
X1042415Y9120378D01*
X1037336Y9104629D01*
X1026921Y9094470D01*
X1016507Y9089136D01*
X1000760Y9084055D01*
X974852Y9084055D01*
X959357Y9089136D01*
X948944Y9094470D01*
X938529Y9104629D01*
X933450Y9120378D01*
X933450Y9156700D01*
X1021587Y9049765D02*
G01*
X1026921Y9039352D01*
X1042415Y9023604D01*
X933450Y9023604D01*
X1021587Y8989313D02*
G01*
X1026921Y8978900D01*
X1042415Y8963405D01*
X933450Y8963405D01*
X813815Y9156700D02*
G01*
X704850Y9156700D01*
X813815Y9156700D02*
G01*
X813815Y9120378D01*
X808736Y9104629D01*
X798321Y9094470D01*
X787907Y9089136D01*
X772160Y9084055D01*
X746252Y9084055D01*
X730757Y9089136D01*
X720344Y9094470D01*
X709929Y9104629D01*
X704850Y9120378D01*
X704850Y9156700D01*
X792987Y9049765D02*
G01*
X798321Y9039352D01*
X813815Y9023604D01*
X704850Y9023604D01*
X787907Y8984234D02*
G01*
X792987Y8984234D01*
X803402Y8978900D01*
X808736Y8973820D01*
X813815Y8963405D01*
X813815Y8942578D01*
X808736Y8932163D01*
X803402Y8927084D01*
X792987Y8921750D01*
X782573Y8921750D01*
X772160Y8927084D01*
X756665Y8937497D01*
X704850Y8989313D01*
X704850Y8916670D01*
X6041643Y7694421D02*
G01*
X6031229Y7704836D01*
X6015736Y7709915D01*
X5994908Y7709915D01*
X5979413Y7704836D01*
X5969000Y7694421D01*
X5969000Y7684008D01*
X5974079Y7673594D01*
X5979413Y7668260D01*
X5989827Y7663179D01*
X6021070Y7652765D01*
X6031229Y7647686D01*
X6036563Y7642352D01*
X6041643Y7631937D01*
X6041643Y7616444D01*
X6031229Y7606029D01*
X6015736Y7600950D01*
X5994908Y7600950D01*
X5979413Y7606029D01*
X5969000Y7616444D01*
X6075934Y7709915D02*
G01*
X6075934Y7600950D01*
X6075934Y7709915D02*
G01*
X6143497Y7709915D01*
X6075934Y7658100D02*
G01*
X6117590Y7658100D01*
X6075934Y7600950D02*
G01*
X6143497Y7600950D01*
X6214109Y7709915D02*
G01*
X6214109Y7600950D01*
X6177788Y7709915D02*
G01*
X6250686Y7709915D01*
X6284975Y7689087D02*
G01*
X6295390Y7694421D01*
X6310884Y7709915D01*
X6310884Y7600950D01*
X7235443Y7707121D02*
G01*
X7225029Y7717536D01*
X7209536Y7722615D01*
X7188708Y7722615D01*
X7173213Y7717536D01*
X7162800Y7707121D01*
X7162800Y7696708D01*
X7167879Y7686294D01*
X7173213Y7680960D01*
X7183627Y7675879D01*
X7214870Y7665465D01*
X7225029Y7660386D01*
X7230363Y7655052D01*
X7235443Y7644637D01*
X7235443Y7629144D01*
X7225029Y7618729D01*
X7209536Y7613650D01*
X7188708Y7613650D01*
X7173213Y7618729D01*
X7162800Y7629144D01*
X7269734Y7722615D02*
G01*
X7269734Y7613650D01*
X7269734Y7722615D02*
G01*
X7337297Y7722615D01*
X7269734Y7670800D02*
G01*
X7311390Y7670800D01*
X7269734Y7613650D02*
G01*
X7337297Y7613650D01*
X7407909Y7722615D02*
G01*
X7407909Y7613650D01*
X7371588Y7722615D02*
G01*
X7444486Y7722615D01*
X7483856Y7696708D02*
G01*
X7483856Y7701787D01*
X7489190Y7712202D01*
X7494270Y7717536D01*
X7504684Y7722615D01*
X7525511Y7722615D01*
X7535925Y7717536D01*
X7541006Y7712202D01*
X7546340Y7701787D01*
X7546340Y7691373D01*
X7541006Y7680960D01*
X7530591Y7665465D01*
X7478775Y7613650D01*
X7551420Y7613650D01*
X8403843Y7707121D02*
G01*
X8393429Y7717536D01*
X8377936Y7722615D01*
X8357108Y7722615D01*
X8341613Y7717536D01*
X8331200Y7707121D01*
X8331200Y7696708D01*
X8336279Y7686294D01*
X8341613Y7680960D01*
X8352027Y7675879D01*
X8383270Y7665465D01*
X8393429Y7660386D01*
X8398763Y7655052D01*
X8403843Y7644637D01*
X8403843Y7629144D01*
X8393429Y7618729D01*
X8377936Y7613650D01*
X8357108Y7613650D01*
X8341613Y7618729D01*
X8331200Y7629144D01*
X8438134Y7722615D02*
G01*
X8438134Y7613650D01*
X8438134Y7722615D02*
G01*
X8505697Y7722615D01*
X8438134Y7670800D02*
G01*
X8479790Y7670800D01*
X8438134Y7613650D02*
G01*
X8505697Y7613650D01*
X8576309Y7722615D02*
G01*
X8576309Y7613650D01*
X8539988Y7722615D02*
G01*
X8612886Y7722615D01*
X8657590Y7722615D02*
G01*
X8714740Y7722615D01*
X8683497Y7680960D01*
X8698991Y7680960D01*
X8709406Y7675879D01*
X8714740Y7670800D01*
X8719820Y7655052D01*
X8719820Y7644637D01*
X8714740Y7629144D01*
X8704325Y7618729D01*
X8688577Y7613650D01*
X8673084Y7613650D01*
X8657590Y7618729D01*
X8652256Y7623810D01*
X8647175Y7634223D01*
X9597643Y7719821D02*
G01*
X9587229Y7730236D01*
X9571736Y7735315D01*
X9550908Y7735315D01*
X9535413Y7730236D01*
X9525000Y7719821D01*
X9525000Y7709408D01*
X9530079Y7698994D01*
X9535413Y7693660D01*
X9545827Y7688579D01*
X9577070Y7678165D01*
X9587229Y7673086D01*
X9592563Y7667752D01*
X9597643Y7657337D01*
X9597643Y7641844D01*
X9587229Y7631429D01*
X9571736Y7626350D01*
X9550908Y7626350D01*
X9535413Y7631429D01*
X9525000Y7641844D01*
X9631934Y7735315D02*
G01*
X9631934Y7626350D01*
X9631934Y7735315D02*
G01*
X9699497Y7735315D01*
X9631934Y7683500D02*
G01*
X9673590Y7683500D01*
X9631934Y7626350D02*
G01*
X9699497Y7626350D01*
X9770109Y7735315D02*
G01*
X9770109Y7626350D01*
X9733788Y7735315D02*
G01*
X9806686Y7735315D01*
X9892791Y7735315D02*
G01*
X9840975Y7662671D01*
X9918700Y7662671D01*
X9892791Y7735315D02*
G01*
X9892791Y7626350D01*
X5990843Y6703821D02*
G01*
X5980429Y6714236D01*
X5964936Y6719315D01*
X5944108Y6719315D01*
X5928613Y6714236D01*
X5918200Y6703821D01*
X5918200Y6693408D01*
X5923279Y6682994D01*
X5928613Y6677660D01*
X5939027Y6672579D01*
X5970270Y6662165D01*
X5980429Y6657086D01*
X5985763Y6651752D01*
X5990843Y6641337D01*
X5990843Y6625844D01*
X5980429Y6615429D01*
X5964936Y6610350D01*
X5944108Y6610350D01*
X5928613Y6615429D01*
X5918200Y6625844D01*
X6025134Y6719315D02*
G01*
X6025134Y6610350D01*
X6025134Y6719315D02*
G01*
X6092697Y6719315D01*
X6025134Y6667500D02*
G01*
X6066790Y6667500D01*
X6025134Y6610350D02*
G01*
X6092697Y6610350D01*
X6163309Y6719315D02*
G01*
X6163309Y6610350D01*
X6126988Y6719315D02*
G01*
X6199886Y6719315D01*
X6296406Y6719315D02*
G01*
X6244590Y6719315D01*
X6239256Y6672579D01*
X6244590Y6677660D01*
X6260084Y6682994D01*
X6275577Y6682994D01*
X6291325Y6677660D01*
X6301740Y6667500D01*
X6306820Y6651752D01*
X6306820Y6641337D01*
X6301740Y6625844D01*
X6291325Y6615429D01*
X6275577Y6610350D01*
X6260084Y6610350D01*
X6244590Y6615429D01*
X6239256Y6620510D01*
X6234175Y6630923D01*
X7235443Y6691121D02*
G01*
X7225029Y6701536D01*
X7209536Y6706615D01*
X7188708Y6706615D01*
X7173213Y6701536D01*
X7162800Y6691121D01*
X7162800Y6680708D01*
X7167879Y6670294D01*
X7173213Y6664960D01*
X7183627Y6659879D01*
X7214870Y6649465D01*
X7225029Y6644386D01*
X7230363Y6639052D01*
X7235443Y6628637D01*
X7235443Y6613144D01*
X7225029Y6602729D01*
X7209536Y6597650D01*
X7188708Y6597650D01*
X7173213Y6602729D01*
X7162800Y6613144D01*
X7269734Y6706615D02*
G01*
X7269734Y6597650D01*
X7269734Y6706615D02*
G01*
X7337297Y6706615D01*
X7269734Y6654800D02*
G01*
X7311390Y6654800D01*
X7269734Y6597650D02*
G01*
X7337297Y6597650D01*
X7407909Y6706615D02*
G01*
X7407909Y6597650D01*
X7371588Y6706615D02*
G01*
X7444486Y6706615D01*
X7541006Y6691121D02*
G01*
X7535925Y6701536D01*
X7520177Y6706615D01*
X7509763Y6706615D01*
X7494270Y6701536D01*
X7483856Y6685787D01*
X7478775Y6659879D01*
X7478775Y6633971D01*
X7483856Y6613144D01*
X7494270Y6602729D01*
X7509763Y6597650D01*
X7515097Y6597650D01*
X7530591Y6602729D01*
X7541006Y6613144D01*
X7546340Y6628637D01*
X7546340Y6633971D01*
X7541006Y6649465D01*
X7530591Y6659879D01*
X7515097Y6664960D01*
X7509763Y6664960D01*
X7494270Y6659879D01*
X7483856Y6649465D01*
X7478775Y6633971D01*
X8453018Y6680301D02*
G01*
X8442604Y6690715D01*
X8427110Y6695795D01*
X8406282Y6695795D01*
X8390788Y6690715D01*
X8380374Y6680301D01*
X8380374Y6669887D01*
X8385454Y6659473D01*
X8390788Y6654139D01*
X8401202Y6649059D01*
X8432444Y6638645D01*
X8442604Y6633565D01*
X8447938Y6628231D01*
X8453018Y6617817D01*
X8453018Y6602323D01*
X8442604Y6591909D01*
X8427110Y6586829D01*
X8406282Y6586829D01*
X8390788Y6591909D01*
X8380374Y6602323D01*
X8487308Y6695795D02*
G01*
X8487308Y6586829D01*
X8487308Y6695795D02*
G01*
X8554872Y6695795D01*
X8487308Y6643979D02*
G01*
X8528964Y6643979D01*
X8487308Y6586829D02*
G01*
X8554872Y6586829D01*
X8625484Y6695795D02*
G01*
X8625484Y6586829D01*
X8589162Y6695795D02*
G01*
X8662060Y6695795D01*
X8768994Y6695795D02*
G01*
X8716924Y6586829D01*
X8696350Y6695795D02*
G01*
X8768994Y6695795D01*
X9557918Y6693001D02*
G01*
X9547504Y6703415D01*
X9532010Y6708495D01*
X9511182Y6708495D01*
X9495688Y6703415D01*
X9485274Y6693001D01*
X9485274Y6682587D01*
X9490354Y6672173D01*
X9495688Y6666839D01*
X9506102Y6661759D01*
X9537344Y6651345D01*
X9547504Y6646265D01*
X9552838Y6640931D01*
X9557918Y6630517D01*
X9557918Y6615023D01*
X9547504Y6604609D01*
X9532010Y6599529D01*
X9511182Y6599529D01*
X9495688Y6604609D01*
X9485274Y6615023D01*
X9592208Y6708495D02*
G01*
X9592208Y6599529D01*
X9592208Y6708495D02*
G01*
X9659772Y6708495D01*
X9592208Y6656679D02*
G01*
X9633864Y6656679D01*
X9592208Y6599529D02*
G01*
X9659772Y6599529D01*
X9730384Y6708495D02*
G01*
X9730384Y6599529D01*
X9694062Y6708495D02*
G01*
X9766960Y6708495D01*
X9827158Y6708495D02*
G01*
X9811664Y6703415D01*
X9806330Y6693001D01*
X9806330Y6682587D01*
X9811664Y6672173D01*
X9821824Y6666839D01*
X9842652Y6661759D01*
X9858400Y6656679D01*
X9868814Y6646265D01*
X9873894Y6635851D01*
X9873894Y6620103D01*
X9868814Y6609689D01*
X9863480Y6604609D01*
X9847986Y6599529D01*
X9827158Y6599529D01*
X9811664Y6604609D01*
X9806330Y6609689D01*
X9801250Y6620103D01*
X9801250Y6635851D01*
X9806330Y6646265D01*
X9816744Y6656679D01*
X9832238Y6661759D01*
X9853066Y6666839D01*
X9863480Y6672173D01*
X9868814Y6682587D01*
X9868814Y6693001D01*
X9863480Y6703415D01*
X9847986Y6708495D01*
X9827158Y6708495D01*
X6041643Y5662421D02*
G01*
X6031229Y5672836D01*
X6015736Y5677915D01*
X5994908Y5677915D01*
X5979413Y5672836D01*
X5969000Y5662421D01*
X5969000Y5652007D01*
X5974079Y5641594D01*
X5979413Y5636260D01*
X5989827Y5631179D01*
X6021070Y5620765D01*
X6031229Y5615686D01*
X6036563Y5610352D01*
X6041643Y5599937D01*
X6041643Y5584444D01*
X6031229Y5574029D01*
X6015736Y5568950D01*
X5994908Y5568950D01*
X5979413Y5574029D01*
X5969000Y5584444D01*
X6075934Y5677915D02*
G01*
X6075934Y5568950D01*
X6075934Y5677915D02*
G01*
X6143497Y5677915D01*
X6075934Y5626100D02*
G01*
X6117590Y5626100D01*
X6075934Y5568950D02*
G01*
X6143497Y5568950D01*
X6214109Y5677915D02*
G01*
X6214109Y5568950D01*
X6177788Y5677915D02*
G01*
X6250686Y5677915D01*
X6352540Y5641594D02*
G01*
X6347206Y5626100D01*
X6336791Y5615686D01*
X6321297Y5610352D01*
X6315963Y5610352D01*
X6300470Y5615686D01*
X6290056Y5626100D01*
X6284975Y5641594D01*
X6284975Y5646673D01*
X6290056Y5662421D01*
X6300470Y5672836D01*
X6315963Y5677915D01*
X6321297Y5677915D01*
X6336791Y5672836D01*
X6347206Y5662421D01*
X6352540Y5641594D01*
X6352540Y5615686D01*
X6347206Y5589523D01*
X6336791Y5574029D01*
X6321297Y5568950D01*
X6310884Y5568950D01*
X6295390Y5574029D01*
X6290056Y5584444D01*
X7222743Y5675121D02*
G01*
X7212329Y5685536D01*
X7196836Y5690615D01*
X7176008Y5690615D01*
X7160513Y5685536D01*
X7150100Y5675121D01*
X7150100Y5664707D01*
X7155179Y5654294D01*
X7160513Y5648960D01*
X7170927Y5643879D01*
X7202170Y5633465D01*
X7212329Y5628386D01*
X7217663Y5623052D01*
X7222743Y5612637D01*
X7222743Y5597144D01*
X7212329Y5586729D01*
X7196836Y5581650D01*
X7176008Y5581650D01*
X7160513Y5586729D01*
X7150100Y5597144D01*
X7257034Y5690615D02*
G01*
X7257034Y5581650D01*
X7257034Y5690615D02*
G01*
X7324597Y5690615D01*
X7257034Y5638800D02*
G01*
X7298690Y5638800D01*
X7257034Y5581650D02*
G01*
X7324597Y5581650D01*
X7395209Y5690615D02*
G01*
X7395209Y5581650D01*
X7358888Y5690615D02*
G01*
X7431786Y5690615D01*
X7466075Y5669787D02*
G01*
X7476490Y5675121D01*
X7491984Y5690615D01*
X7491984Y5581650D01*
X7557515Y5690615D02*
G01*
X7541768Y5685536D01*
X7531354Y5669787D01*
X7526274Y5643879D01*
X7526274Y5628386D01*
X7531354Y5602223D01*
X7541768Y5586729D01*
X7557515Y5581650D01*
X7567929Y5581650D01*
X7583424Y5586729D01*
X7593838Y5602223D01*
X7598918Y5628386D01*
X7598918Y5643879D01*
X7593838Y5669787D01*
X7583424Y5685536D01*
X7567929Y5690615D01*
X7557515Y5690615D01*
X8440318Y5664301D02*
G01*
X8429904Y5674715D01*
X8414410Y5679795D01*
X8393582Y5679795D01*
X8378088Y5674715D01*
X8367674Y5664301D01*
X8367674Y5653887D01*
X8372754Y5643473D01*
X8378088Y5638139D01*
X8388502Y5633059D01*
X8419744Y5622645D01*
X8429904Y5617565D01*
X8435238Y5612231D01*
X8440318Y5601817D01*
X8440318Y5586323D01*
X8429904Y5575909D01*
X8414410Y5570829D01*
X8393582Y5570829D01*
X8378088Y5575909D01*
X8367674Y5586323D01*
X8474608Y5679795D02*
G01*
X8474608Y5570829D01*
X8474608Y5679795D02*
G01*
X8542172Y5679795D01*
X8474608Y5627979D02*
G01*
X8516264Y5627979D01*
X8474608Y5570829D02*
G01*
X8542172Y5570829D01*
X8612784Y5679795D02*
G01*
X8612784Y5570829D01*
X8576462Y5679795D02*
G01*
X8649360Y5679795D01*
X8683650Y5658967D02*
G01*
X8694064Y5664301D01*
X8709558Y5679795D01*
X8709558Y5570829D01*
X8743848Y5658967D02*
G01*
X8754262Y5664301D01*
X8769756Y5679795D01*
X8769756Y5570829D01*
X9545218Y5664301D02*
G01*
X9534804Y5674715D01*
X9519310Y5679795D01*
X9498482Y5679795D01*
X9482988Y5674715D01*
X9472574Y5664301D01*
X9472574Y5653887D01*
X9477654Y5643473D01*
X9482988Y5638139D01*
X9493402Y5633059D01*
X9524644Y5622645D01*
X9534804Y5617565D01*
X9540138Y5612231D01*
X9545218Y5601817D01*
X9545218Y5586323D01*
X9534804Y5575909D01*
X9519310Y5570829D01*
X9498482Y5570829D01*
X9482988Y5575909D01*
X9472574Y5586323D01*
X9579508Y5679795D02*
G01*
X9579508Y5570829D01*
X9579508Y5679795D02*
G01*
X9647072Y5679795D01*
X9579508Y5627979D02*
G01*
X9621164Y5627979D01*
X9579508Y5570829D02*
G01*
X9647072Y5570829D01*
X9717684Y5679795D02*
G01*
X9717684Y5570829D01*
X9681362Y5679795D02*
G01*
X9754260Y5679795D01*
X9788550Y5658967D02*
G01*
X9798964Y5664301D01*
X9814458Y5679795D01*
X9814458Y5570829D01*
X9853828Y5653887D02*
G01*
X9853828Y5658967D01*
X9859162Y5669381D01*
X9864242Y5674715D01*
X9874656Y5679795D01*
X9895484Y5679795D01*
X9905898Y5674715D01*
X9910978Y5669381D01*
X9916312Y5658967D01*
X9916312Y5648553D01*
X9910978Y5638139D01*
X9900564Y5622645D01*
X9848748Y5570829D01*
X9921392Y5570829D01*
X6016243Y4659121D02*
G01*
X6005829Y4669536D01*
X5990336Y4674615D01*
X5969508Y4674615D01*
X5954013Y4669536D01*
X5943600Y4659121D01*
X5943600Y4648707D01*
X5948679Y4638294D01*
X5954013Y4632960D01*
X5964427Y4627879D01*
X5995670Y4617465D01*
X6005829Y4612386D01*
X6011163Y4607052D01*
X6016243Y4596637D01*
X6016243Y4581144D01*
X6005829Y4570729D01*
X5990336Y4565650D01*
X5969508Y4565650D01*
X5954013Y4570729D01*
X5943600Y4581144D01*
X6050534Y4674615D02*
G01*
X6050534Y4565650D01*
X6050534Y4674615D02*
G01*
X6118097Y4674615D01*
X6050534Y4622800D02*
G01*
X6092190Y4622800D01*
X6050534Y4565650D02*
G01*
X6118097Y4565650D01*
X6188709Y4674615D02*
G01*
X6188709Y4565650D01*
X6152388Y4674615D02*
G01*
X6225286Y4674615D01*
X6259575Y4653787D02*
G01*
X6269990Y4659121D01*
X6285484Y4674615D01*
X6285484Y4565650D01*
X6330188Y4674615D02*
G01*
X6387338Y4674615D01*
X6356095Y4632960D01*
X6371590Y4632960D01*
X6382004Y4627879D01*
X6387338Y4622800D01*
X6392418Y4607052D01*
X6392418Y4596637D01*
X6387338Y4581144D01*
X6376924Y4570729D01*
X6361429Y4565650D01*
X6345681Y4565650D01*
X6330188Y4570729D01*
X6324854Y4575810D01*
X6319774Y4586223D01*
X7197343Y4659121D02*
G01*
X7186929Y4669536D01*
X7171436Y4674615D01*
X7150608Y4674615D01*
X7135113Y4669536D01*
X7124700Y4659121D01*
X7124700Y4648707D01*
X7129779Y4638294D01*
X7135113Y4632960D01*
X7145527Y4627879D01*
X7176770Y4617465D01*
X7186929Y4612386D01*
X7192263Y4607052D01*
X7197343Y4596637D01*
X7197343Y4581144D01*
X7186929Y4570729D01*
X7171436Y4565650D01*
X7150608Y4565650D01*
X7135113Y4570729D01*
X7124700Y4581144D01*
X7231634Y4674615D02*
G01*
X7231634Y4565650D01*
X7231634Y4674615D02*
G01*
X7299197Y4674615D01*
X7231634Y4622800D02*
G01*
X7273290Y4622800D01*
X7231634Y4565650D02*
G01*
X7299197Y4565650D01*
X7369809Y4674615D02*
G01*
X7369809Y4565650D01*
X7333488Y4674615D02*
G01*
X7406386Y4674615D01*
X7440675Y4653787D02*
G01*
X7451090Y4659121D01*
X7466584Y4674615D01*
X7466584Y4565650D01*
X7552690Y4674615D02*
G01*
X7500874Y4601971D01*
X7578852Y4601971D01*
X7552690Y4674615D02*
G01*
X7552690Y4565650D01*
X8403843Y4659121D02*
G01*
X8393429Y4669536D01*
X8377936Y4674615D01*
X8357108Y4674615D01*
X8341613Y4669536D01*
X8331200Y4659121D01*
X8331200Y4648707D01*
X8336279Y4638294D01*
X8341613Y4632960D01*
X8352027Y4627879D01*
X8383270Y4617465D01*
X8393429Y4612386D01*
X8398763Y4607052D01*
X8403843Y4596637D01*
X8403843Y4581144D01*
X8393429Y4570729D01*
X8377936Y4565650D01*
X8357108Y4565650D01*
X8341613Y4570729D01*
X8331200Y4581144D01*
X8438134Y4674615D02*
G01*
X8438134Y4565650D01*
X8438134Y4674615D02*
G01*
X8505697Y4674615D01*
X8438134Y4622800D02*
G01*
X8479790Y4622800D01*
X8438134Y4565650D02*
G01*
X8505697Y4565650D01*
X8576309Y4674615D02*
G01*
X8576309Y4565650D01*
X8539988Y4674615D02*
G01*
X8612886Y4674615D01*
X8647175Y4653787D02*
G01*
X8657590Y4659121D01*
X8673084Y4674615D01*
X8673084Y4565650D01*
X8769604Y4674615D02*
G01*
X8717788Y4674615D01*
X8712454Y4627879D01*
X8717788Y4632960D01*
X8733281Y4638294D01*
X8749029Y4638294D01*
X8764524Y4632960D01*
X8774938Y4622800D01*
X8780018Y4607052D01*
X8780018Y4596637D01*
X8774938Y4581144D01*
X8764524Y4570729D01*
X8749029Y4565650D01*
X8733281Y4565650D01*
X8717788Y4570729D01*
X8712454Y4575810D01*
X8707374Y4586223D01*
X9545218Y4661001D02*
G01*
X9534804Y4671415D01*
X9519310Y4676495D01*
X9498482Y4676495D01*
X9482988Y4671415D01*
X9472574Y4661001D01*
X9472574Y4650587D01*
X9477654Y4640173D01*
X9482988Y4634839D01*
X9493402Y4629759D01*
X9524644Y4619345D01*
X9534804Y4614265D01*
X9540138Y4608931D01*
X9545218Y4598517D01*
X9545218Y4583023D01*
X9534804Y4572609D01*
X9519310Y4567529D01*
X9498482Y4567529D01*
X9482988Y4572609D01*
X9472574Y4583023D01*
X9579508Y4676495D02*
G01*
X9579508Y4567529D01*
X9579508Y4676495D02*
G01*
X9647072Y4676495D01*
X9579508Y4624679D02*
G01*
X9621164Y4624679D01*
X9579508Y4567529D02*
G01*
X9647072Y4567529D01*
X9717684Y4676495D02*
G01*
X9717684Y4567529D01*
X9681362Y4676495D02*
G01*
X9754260Y4676495D01*
X9788550Y4655667D02*
G01*
X9798964Y4661001D01*
X9814458Y4676495D01*
X9814458Y4567529D01*
X9910978Y4661001D02*
G01*
X9905898Y4671415D01*
X9890404Y4676495D01*
X9879990Y4676495D01*
X9864242Y4671415D01*
X9853828Y4655667D01*
X9848748Y4629759D01*
X9848748Y4603851D01*
X9853828Y4583023D01*
X9864242Y4572609D01*
X9879990Y4567529D01*
X9885070Y4567529D01*
X9900564Y4572609D01*
X9910978Y4583023D01*
X9916312Y4598517D01*
X9916312Y4603851D01*
X9910978Y4619345D01*
X9900564Y4629759D01*
X9885070Y4634839D01*
X9879990Y4634839D01*
X9864242Y4629759D01*
X9853828Y4619345D01*
X9848748Y4603851D01*
X7767218Y3746601D02*
G01*
X7756804Y3757015D01*
X7741310Y3762095D01*
X7720482Y3762095D01*
X7704988Y3757015D01*
X7694574Y3746601D01*
X7694574Y3736187D01*
X7699654Y3725773D01*
X7704988Y3720439D01*
X7715402Y3715359D01*
X7746644Y3704945D01*
X7756804Y3699865D01*
X7762138Y3694531D01*
X7767218Y3684117D01*
X7767218Y3668623D01*
X7756804Y3658209D01*
X7741310Y3653129D01*
X7720482Y3653129D01*
X7704988Y3658209D01*
X7694574Y3668623D01*
X7801508Y3762095D02*
G01*
X7801508Y3653129D01*
X7801508Y3762095D02*
G01*
X7869072Y3762095D01*
X7801508Y3710279D02*
G01*
X7843164Y3710279D01*
X7801508Y3653129D02*
G01*
X7869072Y3653129D01*
X7939684Y3762095D02*
G01*
X7939684Y3653129D01*
X7903362Y3762095D02*
G01*
X7976260Y3762095D01*
X8010550Y3741267D02*
G01*
X8020964Y3746601D01*
X8036458Y3762095D01*
X8036458Y3653129D01*
X8143392Y3762095D02*
G01*
X8091576Y3653129D01*
X8070748Y3762095D02*
G01*
X8143392Y3762095D01*
X4813300Y7049515D02*
G01*
X4813300Y6940550D01*
X4813300Y7049515D02*
G01*
X4860036Y7049515D01*
X4875529Y7044436D01*
X4880863Y7039102D01*
X4885943Y7028687D01*
X4885943Y7018273D01*
X4880863Y7007860D01*
X4875529Y7002779D01*
X4860036Y6997700D01*
X4813300Y6997700D02*
G01*
X4860036Y6997700D01*
X4875529Y6992365D01*
X4880863Y6987286D01*
X4885943Y6976871D01*
X4885943Y6961123D01*
X4880863Y6950710D01*
X4875529Y6945629D01*
X4860036Y6940550D01*
X4813300Y6940550D01*
X4920234Y7049515D02*
G01*
X4920234Y6971537D01*
X4925568Y6956044D01*
X4935981Y6945629D01*
X4951475Y6940550D01*
X4961890Y6940550D01*
X4977384Y6945629D01*
X4987797Y6956044D01*
X4993131Y6971537D01*
X4993131Y7049515D01*
X5100065Y7049515D02*
G01*
X5027422Y6940550D01*
X5027422Y7049515D02*
G01*
X5100065Y7049515D01*
X5027422Y6940550D02*
G01*
X5100065Y6940550D01*
X5207000Y7049515D02*
G01*
X5134356Y6940550D01*
X5134356Y7049515D02*
G01*
X5207000Y7049515D01*
X5134356Y6940550D02*
G01*
X5207000Y6940550D01*
X5241290Y7049515D02*
G01*
X5241290Y6940550D01*
X5241290Y7049515D02*
G01*
X5308854Y7049515D01*
X5241290Y6997700D02*
G01*
X5282945Y6997700D01*
X5241290Y6940550D02*
G01*
X5308854Y6940550D01*
X5343143Y7049515D02*
G01*
X5343143Y6940550D01*
X5343143Y7049515D02*
G01*
X5389879Y7049515D01*
X5405627Y7044436D01*
X5410708Y7039102D01*
X5416041Y7028687D01*
X5416041Y7018273D01*
X5410708Y7007860D01*
X5405627Y7002779D01*
X5389879Y6997700D01*
X5343143Y6997700D01*
X5379720Y6997700D02*
G01*
X5416041Y6940550D01*
X2276856Y5703315D02*
G01*
X2235200Y5594350D01*
X2276856Y5703315D02*
G01*
X2318258Y5594350D01*
X2250693Y5630671D02*
G01*
X2302763Y5630671D01*
X2352547Y5703315D02*
G01*
X2352547Y5594350D01*
X2352547Y5703315D02*
G01*
X2399284Y5703315D01*
X2415031Y5698236D01*
X2420111Y5692902D01*
X2425445Y5682487D01*
X2425445Y5672073D01*
X2420111Y5661660D01*
X2415031Y5656579D01*
X2399284Y5651500D01*
X2352547Y5651500D01*
X2388870Y5651500D02*
G01*
X2425445Y5594350D01*
X2459736Y5703315D02*
G01*
X2459736Y5594350D01*
X2459736Y5703315D02*
G01*
X2496058Y5703315D01*
X2511552Y5698236D01*
X2521965Y5687821D01*
X2527300Y5677407D01*
X2532379Y5661660D01*
X2532379Y5635752D01*
X2527300Y5620257D01*
X2521965Y5609844D01*
X2511552Y5599429D01*
X2496058Y5594350D01*
X2459736Y5594350D01*
X2566670Y5703315D02*
G01*
X2566670Y5625337D01*
X2571750Y5609844D01*
X2582163Y5599429D01*
X2597911Y5594350D01*
X2608325Y5594350D01*
X2623820Y5599429D01*
X2634234Y5609844D01*
X2639313Y5625337D01*
X2639313Y5703315D01*
X2673604Y5703315D02*
G01*
X2673604Y5594350D01*
X2707893Y5703315D02*
G01*
X2707893Y5594350D01*
X2707893Y5703315D02*
G01*
X2780791Y5594350D01*
X2780791Y5703315D02*
G01*
X2780791Y5594350D01*
X2846070Y5703315D02*
G01*
X2835909Y5698236D01*
X2825495Y5687821D01*
X2820161Y5677407D01*
X2815081Y5661660D01*
X2815081Y5635752D01*
X2820161Y5620257D01*
X2825495Y5609844D01*
X2835909Y5599429D01*
X2846070Y5594350D01*
X2866897Y5594350D01*
X2877311Y5599429D01*
X2887725Y5609844D01*
X2893059Y5620257D01*
X2898140Y5635752D01*
X2898140Y5661660D01*
X2893059Y5677407D01*
X2887725Y5687821D01*
X2877311Y5698236D01*
X2866897Y5703315D01*
X2846070Y5703315D01*
X2932429Y5703315D02*
G01*
X2932429Y5594350D01*
X2932429Y5703315D02*
G01*
X2974086Y5594350D01*
X3015488Y5703315D02*
G01*
X2974086Y5594350D01*
X3015488Y5703315D02*
G01*
X3015488Y5594350D01*
X3049777Y5703315D02*
G01*
X3049777Y5594350D01*
X3162045Y5677407D02*
G01*
X3156965Y5687821D01*
X3146552Y5698236D01*
X3136138Y5703315D01*
X3115309Y5703315D01*
X3104895Y5698236D01*
X3094481Y5687821D01*
X3089402Y5677407D01*
X3084068Y5661660D01*
X3084068Y5635752D01*
X3089402Y5620257D01*
X3094481Y5609844D01*
X3104895Y5599429D01*
X3115309Y5594350D01*
X3136138Y5594350D01*
X3146552Y5599429D01*
X3156965Y5609844D01*
X3162045Y5620257D01*
X3196336Y5703315D02*
G01*
X3196336Y5594350D01*
X3196336Y5703315D02*
G01*
X3243072Y5703315D01*
X3258820Y5698236D01*
X3263900Y5692902D01*
X3268979Y5682487D01*
X3268979Y5672073D01*
X3263900Y5661660D01*
X3258820Y5656579D01*
X3243072Y5651500D01*
X3196336Y5651500D01*
X3232658Y5651500D02*
G01*
X3268979Y5594350D01*
X3334511Y5703315D02*
G01*
X3324097Y5698236D01*
X3313684Y5687821D01*
X3308604Y5677407D01*
X3303270Y5661660D01*
X3303270Y5635752D01*
X3308604Y5620257D01*
X3313684Y5609844D01*
X3324097Y5599429D01*
X3334511Y5594350D01*
X3355340Y5594350D01*
X3365754Y5599429D01*
X3376168Y5609844D01*
X3381247Y5620257D01*
X3386581Y5635752D01*
X3386581Y5661660D01*
X3381247Y5677407D01*
X3376168Y5687821D01*
X3365754Y5698236D01*
X3355340Y5703315D01*
X3334511Y5703315D01*
X2768600Y6770115D02*
G01*
X2768600Y6692137D01*
X2773679Y6676644D01*
X2784093Y6666229D01*
X2799841Y6661150D01*
X2810256Y6661150D01*
X2825750Y6666229D01*
X2836163Y6676644D01*
X2841243Y6692137D01*
X2841243Y6770115D01*
X2875534Y6749287D02*
G01*
X2885947Y6754621D01*
X2901695Y6770115D01*
X2901695Y6661150D01*
D18*
X863600Y2552700D02*
G01*
X863600Y2806700D01*
X1117600Y2806700D01*
X1117600Y2552700D01*
X927100Y2552700D01*
D19*
X863600Y2552700D02*
G01*
X927100Y2552700D01*
D18*
X3937000Y2552700D02*
G01*
X3937000Y2806700D01*
X4191000Y2806700D01*
X4191000Y2552700D01*
X4000500Y2552700D01*
D19*
X3937000Y2552700D02*
G01*
X4000500Y2552700D01*
D18*
X3683000Y2552700D02*
G01*
X3683000Y2806700D01*
X3937000Y2806700D01*
X3937000Y2552700D01*
X3746500Y2552700D01*
D19*
X3683000Y2552700D02*
G01*
X3746500Y2552700D01*
D18*
X6934200Y7975600D02*
G01*
X6680200Y7975600D01*
X6680200Y8229600D01*
X6934200Y8229600D01*
X6934200Y8039100D01*
D19*
X6934200Y7975600D02*
G01*
X6934200Y8039100D01*
D18*
X3771900Y7874000D02*
G01*
X3771900Y8128000D01*
X4025900Y8128000D01*
X4025900Y7874000D01*
X3835400Y7874000D01*
D19*
X3771900Y7874000D02*
G01*
X3835400Y7874000D01*
D18*
X4419600Y2552700D02*
G01*
X4419600Y2806700D01*
X4673600Y2806700D01*
X4673600Y2552700D01*
X4483100Y2552700D01*
D19*
X4419600Y2552700D02*
G01*
X4483100Y2552700D01*
D18*
X4673600Y8572500D02*
G01*
X4673600Y8826500D01*
X4927600Y8826500D01*
X4927600Y8572500D01*
X4737100Y8572500D01*
D19*
X4673600Y8572500D02*
G01*
X4737100Y8572500D01*
D18*
X3771900Y7620000D02*
G01*
X3771900Y7874000D01*
X4025900Y7874000D01*
X4025900Y7620000D01*
X3835400Y7620000D01*
D19*
X3771900Y7620000D02*
G01*
X3835400Y7620000D01*
D18*
X4673600Y2552700D02*
G01*
X4673600Y2806700D01*
X4927600Y2806700D01*
X4927600Y2552700D01*
X4737100Y2552700D01*
D19*
X4673600Y2552700D02*
G01*
X4737100Y2552700D01*
D18*
X6934200Y8483600D02*
G01*
X6680200Y8483600D01*
X6680200Y8737600D01*
X6934200Y8737600D01*
X6934200Y8547100D01*
D19*
X6934200Y8483600D02*
G01*
X6934200Y8547100D01*
D18*
X6934200Y8737600D02*
G01*
X6680200Y8737600D01*
X6680200Y8991600D01*
X6934200Y8991600D01*
X6934200Y8801100D01*
D19*
X6934200Y8737600D02*
G01*
X6934200Y8801100D01*
D18*
X4419600Y8572500D02*
G01*
X4419600Y8826500D01*
X4673600Y8826500D01*
X4673600Y8572500D01*
X4483100Y8572500D01*
D19*
X4419600Y8572500D02*
G01*
X4483100Y8572500D01*
D18*
X3771900Y7366000D02*
G01*
X3771900Y7620000D01*
X4025900Y7620000D01*
X4025900Y7366000D01*
X3835400Y7366000D01*
D19*
X3771900Y7366000D02*
G01*
X3835400Y7366000D01*
D18*
X6934200Y8229600D02*
G01*
X6680200Y8229600D01*
X6680200Y8483600D01*
X6934200Y8483600D01*
X6934200Y8293100D01*
D19*
X6934200Y8229600D02*
G01*
X6934200Y8293100D01*
D18*
X3771900Y8128000D02*
G01*
X3771900Y8382000D01*
X4025900Y8382000D01*
X4025900Y8128000D01*
X3835400Y8128000D01*
D19*
X3771900Y8128000D02*
G01*
X3835400Y8128000D01*
D18*
X1371600Y2743200D02*
G01*
X1371600Y2552700D01*
X1625600Y2552700D01*
X1625600Y3314700D01*
X1371600Y3314700D01*
D19*
X1371600Y3314700D02*
G01*
X1371600Y2743200D01*
D18*
X1625600Y2743200D02*
G01*
X1625600Y2552700D01*
X1879600Y2552700D01*
X1879600Y3314700D01*
X1625600Y3314700D01*
D19*
X1625600Y3314700D02*
G01*
X1625600Y2743200D01*
D18*
X1879600Y2743200D02*
G01*
X1879600Y2552700D01*
X2133600Y2552700D01*
X2133600Y3314700D01*
X1879600Y3314700D01*
D19*
X1879600Y3314700D02*
G01*
X1879600Y2743200D01*
D18*
X2133600Y2743200D02*
G01*
X2133600Y2552700D01*
X2387600Y2552700D01*
X2387600Y3314700D01*
X2133600Y3314700D01*
D19*
X2133600Y3314700D02*
G01*
X2133600Y2743200D01*
D18*
X2387600Y2743200D02*
G01*
X2387600Y2552700D01*
X2641600Y2552700D01*
X2641600Y3314700D01*
X2387600Y3314700D01*
D19*
X2387600Y3314700D02*
G01*
X2387600Y2743200D01*
D18*
X2641600Y2743200D02*
G01*
X2641600Y2552700D01*
X2895600Y2552700D01*
X2895600Y3314700D01*
X2641600Y3314700D01*
D19*
X2641600Y3314700D02*
G01*
X2641600Y2743200D01*
D18*
X3403600Y8699500D02*
G01*
X3403600Y8890000D01*
X3149600Y8890000D01*
X3149600Y8128000D01*
X3403600Y8128000D01*
D19*
X3403600Y8128000D02*
G01*
X3403600Y8699500D01*
D18*
X3149600Y8699500D02*
G01*
X3149600Y8890000D01*
X2895600Y8890000D01*
X2895600Y8128000D01*
X3149600Y8128000D01*
D19*
X3149600Y8128000D02*
G01*
X3149600Y8699500D01*
D18*
X2895600Y8699500D02*
G01*
X2895600Y8890000D01*
X2641600Y8890000D01*
X2641600Y8128000D01*
X2895600Y8128000D01*
D19*
X2895600Y8128000D02*
G01*
X2895600Y8699500D01*
D18*
X2641600Y8699500D02*
G01*
X2641600Y8890000D01*
X2387600Y8890000D01*
X2387600Y8128000D01*
X2641600Y8128000D01*
D19*
X2641600Y8128000D02*
G01*
X2641600Y8699500D01*
D18*
X2387600Y8699500D02*
G01*
X2387600Y8890000D01*
X2133600Y8890000D01*
X2133600Y8128000D01*
X2387600Y8128000D01*
D19*
X2387600Y8128000D02*
G01*
X2387600Y8699500D01*
D18*
X2133600Y8699500D02*
G01*
X2133600Y8890000D01*
X1879600Y8890000D01*
X1879600Y8128000D01*
X2133600Y8128000D01*
D19*
X2133600Y8128000D02*
G01*
X2133600Y8699500D01*
D18*
X1879600Y8699500D02*
G01*
X1879600Y8890000D01*
X1625600Y8890000D01*
X1625600Y8128000D01*
X1879600Y8128000D01*
D19*
X1879600Y8128000D02*
G01*
X1879600Y8699500D01*
D18*
X1625600Y8699500D02*
G01*
X1625600Y8890000D01*
X1371600Y8890000D01*
X1371600Y8128000D01*
X1625600Y8128000D01*
D19*
X1625600Y8128000D02*
G01*
X1625600Y8699500D01*
D18*
X1371600Y8699500D02*
G01*
X1371600Y8890000D01*
X1117600Y8890000D01*
X1117600Y8128000D01*
X1371600Y8128000D01*
D19*
X1371600Y8128000D02*
G01*
X1371600Y8699500D01*
D18*
X1117600Y8699500D02*
G01*
X1117600Y8890000D01*
X863600Y8890000D01*
X863600Y8128000D01*
X1117600Y8128000D01*
D19*
X1117600Y8128000D02*
G01*
X1117600Y8699500D01*
D18*
X863600Y8699500D02*
G01*
X863600Y8890000D01*
X609600Y8890000D01*
X609600Y8128000D01*
X863600Y8128000D01*
D19*
X863600Y8128000D02*
G01*
X863600Y8699500D01*
D10*
X5821398Y7126297D02*
G01*
X5821398Y7326297D01*
X6421399Y7126300D02*
G01*
X6421399Y7326299D01*
X5921372Y6926300D02*
G01*
X6321422Y6926300D01*
X5921375Y7526223D02*
G01*
X6321425Y7526223D01*
X7053298Y7138997D02*
G01*
X7053298Y7338997D01*
X7653299Y7139000D02*
G01*
X7653299Y7338999D01*
X7153272Y6939000D02*
G01*
X7553322Y6939000D01*
X7153275Y7538923D02*
G01*
X7553325Y7538923D01*
X8221698Y7138997D02*
G01*
X8221698Y7338997D01*
X8821699Y7139000D02*
G01*
X8821699Y7338999D01*
X8321672Y6939000D02*
G01*
X8721722Y6939000D01*
X8321675Y7538923D02*
G01*
X8721725Y7538923D01*
X9377398Y7151697D02*
G01*
X9377398Y7351697D01*
X9977399Y7151700D02*
G01*
X9977399Y7351699D01*
X9477372Y6951700D02*
G01*
X9877422Y6951700D01*
X9477375Y7551623D02*
G01*
X9877425Y7551623D01*
X5808698Y6135697D02*
G01*
X5808698Y6335697D01*
X6408699Y6135700D02*
G01*
X6408699Y6335699D01*
X5908672Y5935700D02*
G01*
X6308722Y5935700D01*
X5908675Y6535623D02*
G01*
X6308725Y6535623D01*
X7040598Y6122997D02*
G01*
X7040598Y6322997D01*
X7640599Y6123000D02*
G01*
X7640599Y6322999D01*
X7140572Y5923000D02*
G01*
X7540622Y5923000D01*
X7140575Y6522923D02*
G01*
X7540625Y6522923D01*
X8232772Y6112177D02*
G01*
X8232772Y6312176D01*
X8832773Y6112179D02*
G01*
X8832773Y6312179D01*
X8332746Y5912180D02*
G01*
X8732796Y5912180D01*
X8332749Y6512102D02*
G01*
X8732799Y6512102D01*
X9375772Y6124877D02*
G01*
X9375772Y6324876D01*
X9975773Y6124879D02*
G01*
X9975773Y6324879D01*
X9475746Y5924880D02*
G01*
X9875796Y5924880D01*
X9475749Y6524802D02*
G01*
X9875799Y6524802D01*
X5834098Y5094297D02*
G01*
X5834098Y5294297D01*
X6434099Y5094300D02*
G01*
X6434099Y5294299D01*
X5934072Y4894300D02*
G01*
X6334122Y4894300D01*
X5934075Y5494223D02*
G01*
X6334125Y5494223D01*
X7027898Y5106997D02*
G01*
X7027898Y5306997D01*
X7627899Y5107000D02*
G01*
X7627899Y5306999D01*
X7127872Y4907000D02*
G01*
X7527922Y4907000D01*
X7127875Y5506923D02*
G01*
X7527925Y5506923D01*
X8232772Y5096177D02*
G01*
X8232772Y5296176D01*
X8832773Y5096179D02*
G01*
X8832773Y5296179D01*
X8332746Y4896180D02*
G01*
X8732796Y4896180D01*
X8332749Y5496102D02*
G01*
X8732799Y5496102D01*
X9375772Y5096177D02*
G01*
X9375772Y5296176D01*
X9975773Y5096179D02*
G01*
X9975773Y5296179D01*
X9475746Y4896180D02*
G01*
X9875796Y4896180D01*
X9475749Y5496102D02*
G01*
X9875799Y5496102D01*
X5846798Y4090997D02*
G01*
X5846798Y4290997D01*
X6446799Y4091000D02*
G01*
X6446799Y4290999D01*
X5946772Y3891000D02*
G01*
X6346822Y3891000D01*
X5946775Y4490923D02*
G01*
X6346825Y4490923D01*
X7040598Y4090997D02*
G01*
X7040598Y4290997D01*
X7640599Y4091000D02*
G01*
X7640599Y4290999D01*
X7140572Y3891000D02*
G01*
X7540622Y3891000D01*
X7140575Y4490923D02*
G01*
X7540625Y4490923D01*
X8234398Y4090997D02*
G01*
X8234398Y4290997D01*
X8834399Y4091000D02*
G01*
X8834399Y4290999D01*
X8334372Y3891000D02*
G01*
X8734422Y3891000D01*
X8334375Y4490923D02*
G01*
X8734425Y4490923D01*
X9363072Y4092877D02*
G01*
X9363072Y4292876D01*
X9963073Y4092879D02*
G01*
X9963073Y4292879D01*
X9463046Y3892880D02*
G01*
X9863096Y3892880D01*
X9463049Y4492802D02*
G01*
X9863099Y4492802D01*
X7585072Y3178477D02*
G01*
X7585072Y3378476D01*
X8185073Y3178479D02*
G01*
X8185073Y3378479D01*
X7685046Y2978480D02*
G01*
X8085096Y2978480D01*
X7685049Y3578402D02*
G01*
X8085099Y3578402D01*
X355600Y4800600D02*
G01*
X5181600Y4800600D01*
X5181600Y4800600D02*
G01*
X5181600Y6629400D01*
X5181600Y6629400D02*
G01*
X355600Y6629400D01*
X355600Y6629400D02*
G01*
X355600Y4800600D01*
G75*
G01
X6300978Y7221474D02*
G03X6300978Y7221474I-175006J0D01*
G75*
G01
X7532878Y7234174D02*
G03X7532878Y7234174I-175006J0D01*
G75*
G01
X8701278Y7234174D02*
G03X8701278Y7234174I-175006J0D01*
G75*
G01
X9856978Y7246874D02*
G03X9856978Y7246874I-175006J0D01*
G75*
G01
X6288278Y6230874D02*
G03X6288278Y6230874I-175006J0D01*
G75*
G01
X7520178Y6218174D02*
G03X7520178Y6218174I-175006J0D01*
G75*
G01
X8712352Y6207354D02*
G03X8712352Y6207354I-175006J0D01*
G75*
G01
X9855352Y6220054D02*
G03X9855352Y6220054I-175006J0D01*
G75*
G01
X6313678Y5189474D02*
G03X6313678Y5189474I-175006J0D01*
G75*
G01
X7507478Y5202174D02*
G03X7507478Y5202174I-175006J0D01*
G75*
G01
X8712352Y5191354D02*
G03X8712352Y5191354I-175006J0D01*
G75*
G01
X9855352Y5191354D02*
G03X9855352Y5191354I-175006J0D01*
G75*
G01
X6326378Y4186174D02*
G03X6326378Y4186174I-175006J0D01*
G75*
G01
X7520178Y4186174D02*
G03X7520178Y4186174I-175006J0D01*
G75*
G01
X8713978Y4186174D02*
G03X8713978Y4186174I-175006J0D01*
G75*
G01
X9842652Y4188054D02*
G03X9842652Y4188054I-175006J0D01*
G75*
G01
X8064652Y3273654D02*
G03X8064652Y3273654I-175006J0D01*
M02*
