G04 Layer: BottomLayer*
G04 EasyEDA v6.5.1, 2022-03-16 21:36:57*
G04 cbdba802507a4d1bbacf8785086f075b,e06f65cb955844d690f4b06c7cd67870,10*
G04 Gerber Generator version 0.2*
G04 Scale: 100 percent, Rotated: No, Reflected: No *
G04 Dimensions in millimeters *
G04 leading zeros omitted , absolute positions ,4 integer and 5 decimal *
%FSLAX45Y45*%
%MOMM*%

%ADD11C,0.5000*%
%ADD12C,0.6100*%
%ADD13R,1.5748X1.5748*%
%ADD14C,1.5748*%
%ADD15C,1.8000*%
%ADD16C,1.3005*%
%ADD17C,1.9304*%

%LPD*%
D11*
X990600Y4953000D02*
G01*
X990600Y2679700D01*
X5333161Y8312150D02*
G01*
X5516905Y8128406D01*
X5516905Y6943420D01*
X5196636Y6623151D01*
X5196636Y6573672D01*
X3575964Y4953000D01*
X3530600Y4953000D01*
X3898900Y8255000D02*
G01*
X4052061Y8255000D01*
X4182135Y8385073D01*
X3530600Y4953000D02*
G01*
X4064000Y4419600D01*
X4064000Y2679700D01*
X6807200Y8102600D02*
G01*
X6807200Y7973720D01*
X6807200Y7973720D02*
G01*
X7173010Y7607909D01*
X7173010Y4383252D01*
X6755765Y3966006D01*
X6471793Y3966006D01*
X3681120Y2679700D02*
G01*
X3681120Y2740761D01*
X3234181Y3187700D01*
X3810000Y2679700D02*
G01*
X3681120Y2679700D01*
X3810000Y2679700D02*
G01*
X3938879Y2679700D01*
X4038600Y4953000D02*
G01*
X4184141Y4807457D01*
X4184141Y2575153D01*
X4169486Y2560497D01*
X3953535Y2560497D01*
X3938879Y2575153D01*
X3938879Y2679700D01*
X9988067Y3967886D02*
G01*
X10118902Y4098721D01*
X10118902Y4853051D01*
X10000767Y4971186D01*
X8210067Y3053486D02*
G01*
X7665593Y3597960D01*
X7665593Y3966006D01*
X3730879Y7800746D02*
G01*
X3802252Y7872120D01*
X3898900Y7872120D01*
X3530600Y6477000D02*
G01*
X3530600Y7600467D01*
X3730879Y7800746D01*
X3276600Y8255000D02*
G01*
X3730879Y7800746D01*
X6357874Y6198463D02*
G01*
X6226073Y6330238D01*
X5606313Y6330238D01*
X5327904Y6608648D01*
X6433693Y6010706D02*
G01*
X6433693Y6122619D01*
X6357874Y6198463D01*
X6446393Y7001306D02*
G01*
X6565747Y6881952D01*
X6565747Y6406337D01*
X6357874Y6198463D01*
X6459093Y4969306D02*
G01*
X6591858Y5102072D01*
X6591858Y5852540D01*
X6433693Y6010706D01*
X7665593Y5998006D02*
G01*
X7812024Y6144437D01*
X7812024Y6880275D01*
X7678293Y7014006D01*
X7652893Y4982006D02*
G01*
X7783779Y5112893D01*
X7783779Y5879820D01*
X7665593Y5998006D01*
X8857767Y5987186D02*
G01*
X8716009Y6128943D01*
X8716009Y6883323D01*
X8846693Y7014006D01*
X10000767Y5999886D02*
G01*
X10135997Y6135115D01*
X10135997Y6893102D01*
X10002393Y7026706D01*
X3898900Y8001000D02*
G01*
X3898900Y7872120D01*
X4546600Y4953000D02*
G01*
X4546600Y2679700D01*
X4800600Y8699500D02*
G01*
X4800600Y8570620D01*
X4800600Y6477000D02*
G01*
X4870475Y6546875D01*
X4870475Y8500745D01*
X4800600Y8570620D01*
X3898900Y7747000D02*
G01*
X3898900Y7618120D01*
X4038600Y6477000D02*
G01*
X3779697Y6735902D01*
X3779697Y7603464D01*
X3794353Y7618120D01*
X3898900Y7618120D01*
X4800600Y4953000D02*
G01*
X4800600Y2679700D01*
X2768600Y4953000D02*
G01*
X2897479Y4824120D01*
X2897479Y2872994D01*
X2833065Y2808579D01*
X2768600Y2808579D01*
X6807200Y8610600D02*
G01*
X6807200Y8481720D01*
X7560081Y3503472D02*
G01*
X7353325Y3710228D01*
X7353325Y8032242D01*
X6903847Y8481720D01*
X6807200Y8481720D01*
X2768600Y2679700D02*
G01*
X2768600Y2808579D01*
X9338081Y4417872D02*
G01*
X9338081Y4687265D01*
X8378697Y5646648D01*
X8378697Y7484262D01*
X6998360Y8864600D01*
X6807200Y8864600D01*
X2514600Y2679700D02*
G01*
X2514600Y2808579D01*
X2514600Y4953000D02*
G01*
X2641600Y4826000D01*
X2641600Y2872054D01*
X2578125Y2808579D01*
X2514600Y2808579D01*
X4546600Y6477000D02*
G01*
X4546600Y8699500D01*
X3898900Y7493000D02*
G01*
X3898900Y7364120D01*
X4292600Y6477000D02*
G01*
X4292600Y6970420D01*
X3898900Y7364120D01*
X1498600Y2679700D02*
G01*
X1498600Y2808579D01*
X1498600Y4953000D02*
G01*
X1625600Y4826000D01*
X1625600Y2872054D01*
X1562125Y2808579D01*
X1498600Y2808579D01*
X5821806Y4415993D02*
G01*
X5551017Y4145203D01*
X1752600Y4953000D02*
G01*
X1879600Y4826000D01*
X1879600Y2872054D01*
X1816125Y2808579D01*
X1752600Y2808579D01*
X1752600Y2679700D02*
G01*
X1752600Y2808579D01*
X7015606Y4415993D02*
G01*
X6744588Y4415993D01*
X6025235Y5135346D01*
X2006600Y2679700D02*
G01*
X2006600Y2808579D01*
X2006600Y4953000D02*
G01*
X2133600Y4826000D01*
X2133600Y2872054D01*
X2070125Y2808579D01*
X2006600Y2808579D01*
X2260600Y2679700D02*
G01*
X2260600Y2808579D01*
X2260600Y4953000D02*
G01*
X2387600Y4826000D01*
X2387600Y2872054D01*
X2324125Y2808579D01*
X2260600Y2808579D01*
X5796406Y7451293D02*
G01*
X5796406Y7949260D01*
X4926965Y8818702D01*
X3461181Y8818702D01*
X3405479Y8763000D01*
X3276600Y8763000D02*
G01*
X3405479Y8763000D01*
X3276600Y8763000D02*
G01*
X3276600Y8634120D01*
X3276600Y6477000D02*
G01*
X3149600Y6604000D01*
X3149600Y8570645D01*
X3213074Y8634120D01*
X3276600Y8634120D01*
X7028306Y7463993D02*
G01*
X6790613Y7226300D01*
X6272555Y7226300D01*
X5722493Y6676237D01*
X5451856Y6676237D01*
X3022600Y8763000D02*
G01*
X3022600Y8634120D01*
X3022600Y6477000D02*
G01*
X2895600Y6604000D01*
X2895600Y8570645D01*
X2959074Y8634120D01*
X3022600Y8634120D01*
X2641600Y7370394D02*
G01*
X2641600Y8570645D01*
X2705074Y8634120D01*
X2768600Y8634120D01*
X2768600Y6477000D02*
G01*
X2641600Y6604000D01*
X2641600Y7370394D01*
X2768600Y8763000D02*
G01*
X2768600Y8634120D01*
X2514600Y8763000D02*
G01*
X2514600Y8634120D01*
X2514600Y6477000D02*
G01*
X2387600Y6604000D01*
X2387600Y8570645D01*
X2451074Y8634120D01*
X2514600Y8634120D01*
X2260600Y8763000D02*
G01*
X2260600Y8634120D01*
X2260600Y6477000D02*
G01*
X2133600Y6604000D01*
X2133600Y8570645D01*
X2197074Y8634120D01*
X2260600Y8634120D01*
X2006600Y8763000D02*
G01*
X2006600Y8634120D01*
X2006600Y6477000D02*
G01*
X1879600Y6604000D01*
X1879600Y8570645D01*
X1943074Y8634120D01*
X2006600Y8634120D01*
X1752600Y8763000D02*
G01*
X1752600Y8634120D01*
X1752600Y6477000D02*
G01*
X1625600Y6604000D01*
X1625600Y8570645D01*
X1689074Y8634120D01*
X1752600Y8634120D01*
X1498600Y8763000D02*
G01*
X1498600Y8634120D01*
X1498600Y6477000D02*
G01*
X1371600Y6604000D01*
X1371600Y8570645D01*
X1435074Y8634120D01*
X1498600Y8634120D01*
X5809106Y5419293D02*
G01*
X5773293Y5419293D01*
X5258028Y5934557D01*
X1244600Y8763000D02*
G01*
X1244600Y8634120D01*
X1244600Y6477000D02*
G01*
X1117600Y6604000D01*
X1117600Y8570645D01*
X1181074Y8634120D01*
X1244600Y8634120D01*
X990600Y8763000D02*
G01*
X990600Y8634120D01*
X990600Y6477000D02*
G01*
X863600Y6604000D01*
X863600Y8570645D01*
X927074Y8634120D01*
X990600Y8634120D01*
X5405120Y7772400D02*
G01*
X5107940Y7475220D01*
X5107940Y6580759D01*
X4857368Y6330187D01*
X2113788Y6330187D01*
X736600Y4953000D01*
D13*
G01*
X990600Y2679700D03*
G01*
X4064000Y2679700D03*
G01*
X3810000Y2679700D03*
G01*
X6807200Y8102600D03*
G01*
X3898900Y8001000D03*
G01*
X4546600Y2679700D03*
G01*
X4800600Y8699500D03*
G01*
X3898900Y7747000D03*
G01*
X4800600Y2679700D03*
G01*
X6807200Y8610600D03*
G01*
X6807200Y8864600D03*
G01*
X4546600Y8699500D03*
G01*
X3898900Y7493000D03*
G01*
X6807200Y8356600D03*
G01*
X3898900Y8255000D03*
D14*
G01*
X1498600Y3187700D03*
G01*
X1498600Y2933700D03*
D13*
G01*
X1498600Y2679700D03*
D14*
G01*
X1752600Y3187700D03*
G01*
X1752600Y2933700D03*
D13*
G01*
X1752600Y2679700D03*
D14*
G01*
X2006600Y3187700D03*
G01*
X2006600Y2933700D03*
D13*
G01*
X2006600Y2679700D03*
D14*
G01*
X2260600Y3187700D03*
G01*
X2260600Y2933700D03*
D13*
G01*
X2260600Y2679700D03*
D14*
G01*
X2514600Y3187700D03*
G01*
X2514600Y2933700D03*
D13*
G01*
X2514600Y2679700D03*
D14*
G01*
X2768600Y3187700D03*
G01*
X2768600Y2933700D03*
D13*
G01*
X2768600Y2679700D03*
D14*
G01*
X3276600Y8255000D03*
G01*
X3276600Y8509000D03*
D13*
G01*
X3276600Y8763000D03*
D14*
G01*
X3022600Y8255000D03*
G01*
X3022600Y8509000D03*
D13*
G01*
X3022600Y8763000D03*
D14*
G01*
X2768600Y8255000D03*
G01*
X2768600Y8509000D03*
D13*
G01*
X2768600Y8763000D03*
D14*
G01*
X2514600Y8255000D03*
G01*
X2514600Y8509000D03*
D13*
G01*
X2514600Y8763000D03*
D14*
G01*
X2260600Y8255000D03*
G01*
X2260600Y8509000D03*
D13*
G01*
X2260600Y8763000D03*
D14*
G01*
X2006600Y8255000D03*
G01*
X2006600Y8509000D03*
D13*
G01*
X2006600Y8763000D03*
D14*
G01*
X1752600Y8255000D03*
G01*
X1752600Y8509000D03*
D13*
G01*
X1752600Y8763000D03*
D14*
G01*
X1498600Y8255000D03*
G01*
X1498600Y8509000D03*
D13*
G01*
X1498600Y8763000D03*
D14*
G01*
X1244600Y8255000D03*
G01*
X1244600Y8509000D03*
D13*
G01*
X1244600Y8763000D03*
D14*
G01*
X990600Y8255000D03*
G01*
X990600Y8509000D03*
D13*
G01*
X990600Y8763000D03*
D14*
G01*
X736600Y8255000D03*
G01*
X736600Y8509000D03*
D13*
G01*
X736600Y8763000D03*
D15*
G01*
X6446393Y7451293D03*
G01*
X5796406Y7451293D03*
G01*
X5796406Y7001306D03*
G01*
X6446393Y7001306D03*
G01*
X7678293Y7463993D03*
G01*
X7028306Y7463993D03*
G01*
X7028306Y7014006D03*
G01*
X7678293Y7014006D03*
G01*
X8846693Y7463993D03*
G01*
X8196706Y7463993D03*
G01*
X8196706Y7014006D03*
G01*
X8846693Y7014006D03*
G01*
X10002393Y7476693D03*
G01*
X9352406Y7476693D03*
G01*
X9352406Y7026706D03*
G01*
X10002393Y7026706D03*
G01*
X6433693Y6460693D03*
G01*
X5783706Y6460693D03*
G01*
X5783706Y6010706D03*
G01*
X6433693Y6010706D03*
G01*
X7665593Y6447993D03*
G01*
X7015606Y6447993D03*
G01*
X7015606Y5998006D03*
G01*
X7665593Y5998006D03*
G01*
X8857767Y6437172D03*
G01*
X8207781Y6437172D03*
G01*
X8207781Y5987186D03*
G01*
X8857767Y5987186D03*
G01*
X10000767Y6449872D03*
G01*
X9350781Y6449872D03*
G01*
X9350781Y5999886D03*
G01*
X10000767Y5999886D03*
G01*
X6459093Y5419293D03*
G01*
X5809106Y5419293D03*
G01*
X5809106Y4969306D03*
G01*
X6459093Y4969306D03*
G01*
X7652893Y5431993D03*
G01*
X7002906Y5431993D03*
G01*
X7002906Y4982006D03*
G01*
X7652893Y4982006D03*
G01*
X8857767Y5421172D03*
G01*
X8207781Y5421172D03*
G01*
X8207781Y4971186D03*
G01*
X8857767Y4971186D03*
G01*
X10000767Y5421172D03*
G01*
X9350781Y5421172D03*
G01*
X9350781Y4971186D03*
G01*
X10000767Y4971186D03*
G01*
X6471793Y4415993D03*
G01*
X5821806Y4415993D03*
G01*
X5821806Y3966006D03*
G01*
X6471793Y3966006D03*
G01*
X7665593Y4415993D03*
G01*
X7015606Y4415993D03*
G01*
X7015606Y3966006D03*
G01*
X7665593Y3966006D03*
G01*
X8859393Y4415993D03*
G01*
X8209406Y4415993D03*
G01*
X8209406Y3966006D03*
G01*
X8859393Y3966006D03*
G01*
X9988067Y4417872D03*
G01*
X9338081Y4417872D03*
G01*
X9338081Y3967886D03*
G01*
X9988067Y3967886D03*
G01*
X8210067Y3503472D03*
G01*
X7560081Y3503472D03*
G01*
X7560081Y3053486D03*
G01*
X8210067Y3053486D03*
D16*
G01*
X4754879Y7772400D03*
G01*
X5405120Y7772400D03*
D17*
G01*
X736600Y6477000D03*
G01*
X990600Y6477000D03*
G01*
X1244600Y6477000D03*
G01*
X1498600Y6477000D03*
G01*
X1752600Y6477000D03*
G01*
X2006600Y6477000D03*
G01*
X2260600Y6477000D03*
G01*
X2514600Y6477000D03*
G01*
X2768600Y6477000D03*
G01*
X3022600Y6477000D03*
G01*
X3276600Y6477000D03*
G01*
X4038600Y4953000D03*
G01*
X3784600Y4953000D03*
G01*
X4038600Y6477000D03*
G01*
X4292600Y6477000D03*
G01*
X4546600Y6477000D03*
G01*
X4800600Y6477000D03*
G01*
X4800600Y4953000D03*
G01*
X4546600Y4953000D03*
G01*
X4292600Y4953000D03*
G01*
X3530600Y6477000D03*
G01*
X3784600Y6477000D03*
G01*
X3530600Y4953000D03*
G01*
X3276600Y4953000D03*
G01*
X3022600Y4953000D03*
G01*
X2768600Y4953000D03*
G01*
X2514600Y4953000D03*
G01*
X2260600Y4953000D03*
G01*
X2006600Y4953000D03*
G01*
X1752600Y4953000D03*
G01*
X1498600Y4953000D03*
G01*
X1244600Y4953000D03*
G01*
X990600Y4953000D03*
G01*
X736600Y4953000D03*
D12*
G01*
X5333161Y8312150D03*
G01*
X4182135Y8385073D03*
G01*
X3234181Y3187700D03*
G01*
X5327904Y6608648D03*
G01*
X5551017Y4145203D03*
G01*
X6025235Y5135346D03*
G01*
X5451856Y6676237D03*
G01*
X2641600Y7370394D03*
G01*
X5258028Y5934557D03*
M02*
